<?xml version="1.0" encoding="UTF-8"?>
<!DOCTYPE svg PUBLIC "-//W3C//DTD SVG 1.1//EN" "http://www.w3.org/Graphics/SVG/1.1/DTD/svg11.dtd">
<svg xmlns="http://www.w3.org/2000/svg" version="1.1" width="1024px" height="1024px" style="shape-rendering:geometricPrecision; text-rendering:geometricPrecision; image-rendering:optimizeQuality; fill-rule:evenodd; clip-rule:evenodd" xmlns:xlink="http://www.w3.org/1999/xlink">
<g><path style="opacity:1" fill="#074562" d="M 529.5,160.5 C 529.775,163.658 531.442,165.658 534.5,166.5C 533.125,168.163 533.458,169.497 535.5,170.5C 539.356,172.562 543.356,174.228 547.5,175.5C 547.5,176.833 547.5,178.167 547.5,179.5C 546.167,179.5 544.833,179.5 543.5,179.5C 544.093,182.596 543.093,184.929 540.5,186.5C 542.297,187.695 543.297,189.362 543.5,191.5C 547.262,191.348 550.928,190.681 554.5,189.5C 555.641,191.421 555.808,193.421 555,195.5C 554.329,196.252 553.496,196.586 552.5,196.5C 549.408,195.456 546.408,194.122 543.5,192.5C 542.702,192.957 542.369,193.624 542.5,194.5C 540.847,194.34 539.514,193.674 538.5,192.5C 539.552,192.649 540.552,192.483 541.5,192C 530.106,185.97 518.439,180.47 506.5,175.5C 505.913,176.233 505.913,177.233 506.5,178.5C 498.314,179.145 490.647,181.812 483.5,186.5C 483.577,185.25 484.244,184.417 485.5,184C 484.5,183.333 483.5,183.333 482.5,184C 467.478,190.845 452.478,197.678 437.5,204.5C 435.983,204.489 434.816,203.823 434,202.5C 433.982,200.203 434.149,197.869 434.5,195.5C 433.5,195.5 432.5,195.5 431.5,195.5C 431.5,192.833 431.5,190.167 431.5,187.5C 434.167,187.5 436.833,187.5 439.5,187.5C 439.297,185.61 439.963,184.11 441.5,183C 443.527,183.498 445.527,183.331 447.5,182.5C 445.868,182.762 444.701,181.762 444,179.5C 441.275,181.758 438.275,182.091 435,180.5C 429.036,183.101 423.036,185.767 417,188.5C 415.862,188.011 414.695,187.678 413.5,187.5C 428.716,181.088 443.716,174.088 458.5,166.5C 459.222,166.918 459.722,167.584 460,168.5C 474.859,161.652 489.859,154.986 505,148.5C 513.312,152.407 521.479,156.407 529.5,160.5 Z"/></g>
<g><path style="opacity:0.192" fill="#022c49" d="M 586.5,182.5 C 585.791,183.404 584.791,183.737 583.5,183.5C 565.47,175.816 547.47,168.149 529.5,160.5C 521.479,156.407 513.312,152.407 505,148.5C 489.859,154.986 474.859,161.652 460,168.5C 459.722,167.584 459.222,166.918 458.5,166.5C 473.859,159.408 489.359,152.408 505,145.5C 514.823,150.331 524.657,155.165 534.5,160C 551.986,167.245 569.319,174.745 586.5,182.5 Z"/></g>
<g><path style="opacity:1" fill="#063f59" d="M 529.5,160.5 C 547.47,168.149 565.47,175.816 583.5,183.5C 587.527,186.398 591.86,188.732 596.5,190.5C 597.429,191.315 598.429,192.148 599.5,193C 599.146,194.626 599.146,196.459 599.5,198.5C 598.178,198.33 597.011,198.663 596,199.5C 594.182,203.77 592.515,208.103 591,212.5C 588.527,209.692 585.527,207.692 582,206.5C 580.527,206.903 579.194,207.57 578,208.5C 569.407,204.586 560.907,200.586 552.5,196.5C 553.496,196.586 554.329,196.252 555,195.5C 555.808,193.421 555.641,191.421 554.5,189.5C 550.928,190.681 547.262,191.348 543.5,191.5C 543.297,189.362 542.297,187.695 540.5,186.5C 543.093,184.929 544.093,182.596 543.5,179.5C 544.833,179.5 546.167,179.5 547.5,179.5C 547.5,178.167 547.5,176.833 547.5,175.5C 543.356,174.228 539.356,172.562 535.5,170.5C 533.458,169.497 533.125,168.163 534.5,166.5C 531.442,165.658 529.775,163.658 529.5,160.5 Z"/></g>
<g><path style="opacity:0.392" fill="#02284d" d="M 538.5,192.5 C 527.827,187.83 517.161,183.163 506.5,178.5C 505.913,177.233 505.913,176.233 506.5,175.5C 518.439,180.47 530.106,185.97 541.5,192C 540.552,192.483 539.552,192.649 538.5,192.5 Z"/></g>
<g><path style="opacity:1" fill="#094d6f" d="M 437.5,204.5 C 420.425,213.365 402.758,221.198 384.5,228C 383.328,228.419 382.328,229.085 381.5,230C 381.728,230.399 382.062,230.565 382.5,230.5C 382.586,231.496 382.252,232.329 381.5,233C 378.088,233.569 375.255,235.069 373,237.5C 372.5,254.163 372.333,270.83 372.5,287.5C 371.668,270.338 371.168,253.005 371,235.5C 370.667,256.833 370.333,278.167 370,299.5C 369.641,302.544 368.974,302.878 368,300.5C 367.842,295.444 366.509,290.777 364,286.5C 363.501,282.848 363.335,279.182 363.5,275.5C 359.154,275.334 354.821,275.501 350.5,276C 349.975,278.764 348.642,279.598 346.5,278.5C 346.173,258.257 346.507,238.091 347.5,218C 346.906,217.536 346.239,217.369 345.5,217.5C 345.953,216.542 346.619,215.708 347.5,215C 369.681,206.07 391.681,196.904 413.5,187.5C 414.695,187.678 415.862,188.011 417,188.5C 423.036,185.767 429.036,183.101 435,180.5C 438.275,182.091 441.275,181.758 444,179.5C 444.701,181.762 445.868,182.762 447.5,182.5C 445.527,183.331 443.527,183.498 441.5,183C 439.963,184.11 439.297,185.61 439.5,187.5C 436.833,187.5 434.167,187.5 431.5,187.5C 431.5,190.167 431.5,192.833 431.5,195.5C 432.5,195.5 433.5,195.5 434.5,195.5C 434.149,197.869 433.982,200.203 434,202.5C 434.816,203.823 435.983,204.489 437.5,204.5 Z"/></g>
<g><path style="opacity:1" fill="#013a63" d="M 512.5,187.5 C 519.377,191.438 526.377,195.105 533.5,198.5C 533.5,199.167 533.5,199.833 533.5,200.5C 532.733,201.172 532.066,202.005 531.5,203C 532.035,204.462 532.035,206.128 531.5,208C 532.877,215.861 534.21,223.694 535.5,231.5C 532.833,231.5 530.167,231.5 527.5,231.5C 527.5,229.5 527.5,227.5 527.5,225.5C 525.011,225.298 522.677,225.798 520.5,227C 518.087,231.13 514.587,233.963 510,235.5C 510.749,233.775 511.915,232.108 513.5,230.5C 521.982,222.182 522.649,213.182 515.5,203.5C 511.341,199.007 506.341,197.674 500.5,199.5C 497.69,202.072 494.69,204.406 491.5,206.5C 490.833,206.833 490.167,207.167 489.5,207.5C 491.893,203.598 494.893,200.098 498.5,197C 503.97,196.149 509.303,196.649 514.5,198.5C 514.833,197.667 515.167,196.833 515.5,196C 514.566,193.662 513.232,191.496 511.5,189.5C 511.863,188.817 512.196,188.15 512.5,187.5 Z"/></g>
<g><path style="opacity:1" fill="#025f99" d="M 512.5,187.5 C 512.196,188.15 511.863,188.817 511.5,189.5C 513.232,191.496 514.566,193.662 515.5,196C 515.167,196.833 514.833,197.667 514.5,198.5C 509.303,196.649 503.97,196.149 498.5,197C 494.893,200.098 491.893,203.598 489.5,207.5C 487.08,210.293 486.08,213.626 486.5,217.5C 487.019,220.613 487.519,223.613 488,226.5C 484.943,227.451 481.777,227.784 478.5,227.5C 479.234,226.292 479.567,224.959 479.5,223.5C 480.833,223.5 482.167,223.5 483.5,223.5C 483.5,220.833 483.5,218.167 483.5,215.5C 479.984,216.254 476.651,217.587 473.5,219.5C 471.666,218.246 469.666,217.579 467.5,217.5C 467.558,214.336 468.224,211.336 469.5,208.5C 473.652,208.369 474.318,206.869 471.5,204C 473.167,202.667 474.833,201.333 476.5,200C 475.552,199.517 474.552,199.351 473.5,199.5C 482.836,195.742 491.836,191.242 500.5,186C 504.69,185.19 508.69,185.69 512.5,187.5 Z"/></g>
<g><path style="opacity:1" fill="#022335" d="M 596.5,190.5 C 617.724,199.079 639.057,207.579 660.5,216C 664.051,217.677 665.384,220.51 664.5,224.5C 663.679,227.641 663.179,230.975 663,234.5C 662.29,235.973 661.124,236.64 659.5,236.5C 659.5,237.5 659.5,238.5 659.5,239.5C 660.833,239.5 662.167,239.5 663.5,239.5C 662.74,245.804 662.407,252.137 662.5,258.5C 661.5,258.5 660.5,258.5 659.5,258.5C 659.5,256.167 659.5,253.833 659.5,251.5C 658.167,251.5 656.833,251.5 655.5,251.5C 655.5,247.5 655.5,243.5 655.5,239.5C 652.102,239.82 648.768,239.487 645.5,238.5C 643.827,236.477 643.16,234.144 643.5,231.5C 640.999,232.826 638.332,233.326 635.5,233C 622.252,227.028 608.918,221.694 595.5,217C 596.167,217.333 596.833,217.667 597.5,218C 597.272,218.399 596.938,218.565 596.5,218.5C 583.066,213.284 569.733,207.784 556.5,202C 552.01,199.221 547.343,196.721 542.5,194.5C 542.369,193.624 542.702,192.957 543.5,192.5C 546.408,194.122 549.408,195.456 552.5,196.5C 560.907,200.586 569.407,204.586 578,208.5C 579.194,207.57 580.527,206.903 582,206.5C 585.527,207.692 588.527,209.692 591,212.5C 592.515,208.103 594.182,203.77 596,199.5C 597.011,198.663 598.178,198.33 599.5,198.5C 599.146,196.459 599.146,194.626 599.5,193C 598.429,192.148 597.429,191.315 596.5,190.5 Z"/></g>
<g><path style="opacity:1" fill="#056c9d" d="M 473.5,199.5 C 474.552,199.351 475.552,199.517 476.5,200C 474.833,201.333 473.167,202.667 471.5,204C 474.318,206.869 473.652,208.369 469.5,208.5C 468.224,211.336 467.558,214.336 467.5,217.5C 469.666,217.579 471.666,218.246 473.5,219.5C 476.651,217.587 479.984,216.254 483.5,215.5C 483.5,218.167 483.5,220.833 483.5,223.5C 482.167,223.5 480.833,223.5 479.5,223.5C 479.567,224.959 479.234,226.292 478.5,227.5C 477.624,227.369 476.957,227.702 476.5,228.5C 477.902,231.652 477.568,234.652 475.5,237.5C 477.607,239.487 477.774,241.487 476,243.5C 475.333,242.167 474.667,242.167 474,243.5C 473.667,247.167 473.333,250.833 473,254.5C 472.56,256.076 471.727,257.41 470.5,258.5C 471.494,261.399 470.494,262.066 467.5,260.5C 464.866,262.976 462.866,265.81 461.5,269C 463.835,270.52 463.668,272.02 461,273.5C 455.779,268.279 450.613,263.113 445.5,258C 442.446,255.806 439.112,254.139 435.5,253C 434.773,251.601 434.273,250.101 434,248.5C 432.989,247.663 431.822,247.33 430.5,247.5C 429.833,246.167 429.167,244.833 428.5,243.5C 432.273,244.178 435.106,242.844 437,239.5C 438.199,235.405 439.699,231.405 441.5,227.5C 441.124,225.617 440.124,224.117 438.5,223C 439.833,221.667 439.833,220.333 438.5,219C 440.285,217.837 442.285,217.17 444.5,217C 442.934,216.392 441.6,215.558 440.5,214.5C 451.497,209.506 462.497,204.506 473.5,199.5 Z"/></g>
<g><path style="opacity:1" fill="#02447b" d="M 503.5,204.5 C 510.687,204.687 514.687,208.354 515.5,215.5C 514.97,224.539 510.303,228.706 501.5,228C 493.876,222.668 492.709,216.168 498,208.5C 499.5,206.531 501.333,205.198 503.5,204.5 Z"/></g>
<g><path style="opacity:0.227" fill="#020a1a" d="M 586.5,182.5 C 593.47,185.827 600.47,189.161 607.5,192.5C 626.709,199.437 645.709,206.937 664.5,215C 665.333,215.833 666.167,216.667 667,217.5C 666.923,225.577 667.09,233.577 667.5,241.5C 665.879,257.968 665.045,274.634 665,291.5C 664.5,269.169 664.333,246.836 664.5,224.5C 665.384,220.51 664.051,217.677 660.5,216C 639.057,207.579 617.724,199.079 596.5,190.5C 591.86,188.732 587.527,186.398 583.5,183.5C 584.791,183.737 585.791,183.404 586.5,182.5 Z"/></g>
<g><path style="opacity:1" fill="#03283e" d="M 533.5,198.5 C 543.155,202.66 552.822,206.827 562.5,211C 565.898,212.357 568.898,214.19 571.5,216.5C 567.813,214.81 567.146,215.31 569.5,218C 575.979,220.409 582.312,223.075 588.5,226C 590.916,229.213 590.916,232.38 588.5,235.5C 581.436,239.06 577.269,244.727 576,252.5C 572.746,252.838 569.912,253.838 567.5,255.5C 563.167,260.5 558.5,265.167 553.5,269.5C 552.761,269.631 552.094,269.464 551.5,269C 552.682,265.465 554.015,261.965 555.5,258.5C 557.071,256.585 559.071,255.585 561.5,255.5C 561.752,252.756 561.085,250.256 559.5,248C 561.263,239.713 562.596,231.547 563.5,223.5C 563.163,220.824 562.83,218.157 562.5,215.5C 560.143,215.663 557.81,215.497 555.5,215C 555.833,214.667 556.167,214.333 556.5,214C 554.139,213.803 552.472,212.636 551.5,210.5C 545.475,207.155 539.475,203.822 533.5,200.5C 533.5,199.833 533.5,199.167 533.5,198.5 Z"/></g>
<g><path style="opacity:0.325" fill="#023156" d="M 483.5,186.5 C 454.701,199.377 426.035,212.544 397.5,226C 392.463,227.527 387.463,229.027 382.5,230.5C 382.062,230.565 381.728,230.399 381.5,230C 382.328,229.085 383.328,228.419 384.5,228C 402.758,221.198 420.425,213.365 437.5,204.5C 452.478,197.678 467.478,190.845 482.5,184C 483.5,183.333 484.5,183.333 485.5,184C 484.244,184.417 483.577,185.25 483.5,186.5 Z"/></g>
<g><path style="opacity:1" fill="#033753" d="M 533.5,200.5 C 539.475,203.822 545.475,207.155 551.5,210.5C 552.472,212.636 554.139,213.803 556.5,214C 556.167,214.333 555.833,214.667 555.5,215C 557.81,215.497 560.143,215.663 562.5,215.5C 562.83,218.157 563.163,220.824 563.5,223.5C 562.596,231.547 561.263,239.713 559.5,248C 561.085,250.256 561.752,252.756 561.5,255.5C 559.071,255.585 557.071,256.585 555.5,258.5C 554.015,261.965 552.682,265.465 551.5,269C 552.094,269.464 552.761,269.631 553.5,269.5C 548.494,274.839 543.494,280.173 538.5,285.5C 534.46,283.962 531.126,281.462 528.5,278C 522.727,275.576 516.727,274.076 510.5,273.5C 509.287,273.253 508.62,272.586 508.5,271.5C 516.991,270.911 524.658,273.077 531.5,278C 535.011,278.12 535.345,276.786 532.5,274C 535.659,272.841 537.826,270.674 539,267.5C 539.611,260.836 540.111,254.17 540.5,247.5C 541.5,247.5 542.5,247.5 543.5,247.5C 541.001,242.488 539.668,237.155 539.5,231.5C 538.167,231.5 536.833,231.5 535.5,231.5C 534.21,223.694 532.877,215.861 531.5,208C 532.035,206.128 532.035,204.462 531.5,203C 532.066,202.005 532.733,201.172 533.5,200.5 Z"/></g>
<g><path style="opacity:1" fill="#05537d" d="M 493.5,228.5 C 495.637,230.962 498.304,232.629 501.5,233.5C 502.537,246.495 502.537,259.495 501.5,272.5C 493.054,273.187 485.387,275.854 478.5,280.5C 477.883,280.389 477.383,280.056 477,279.5C 475.905,274.22 475.405,268.887 475.5,263.5C 477.167,263.5 478.833,263.5 480.5,263.5C 480.732,256.78 481.398,250.113 482.5,243.5C 483.5,243.5 484.5,243.5 485.5,243.5C 486.546,239.916 487.379,236.25 488,232.5C 489.591,230.211 491.424,228.878 493.5,228.5 Z"/></g>
<g><path style="opacity:1" fill="#02121f" d="M 571.5,216.5 C 583.542,221.511 595.542,226.511 607.5,231.5C 606.448,231.771 605.115,231.938 603.5,232C 611.622,235.561 619.622,239.394 627.5,243.5C 628.667,263.501 628.667,283.501 627.5,303.5C 616.833,303.5 606.167,303.5 595.5,303.5C 604.711,303 611.377,302.333 615.5,301.5C 615.5,299.5 615.5,297.5 615.5,295.5C 618.167,295.5 620.833,295.5 623.5,295.5C 623.343,296.873 623.51,298.207 624,299.5C 626.04,292.702 625.874,286.035 623.5,279.5C 619.5,279.5 615.5,279.5 611.5,279.5C 611.5,278.167 611.5,276.833 611.5,275.5C 610.167,275.5 608.833,275.5 607.5,275.5C 607.657,274.127 607.49,272.793 607,271.5C 600.442,274.263 593.608,275.096 586.5,274C 582.529,270.226 578.529,266.726 574.5,263.5C 573.5,263.667 572.5,263.833 571.5,264C 566.968,269.362 562.301,274.528 557.5,279.5C 553.344,282.666 550.01,286.499 547.5,291C 549.11,295.054 551.11,298.887 553.5,302.5C 556.428,303.484 559.428,303.817 562.5,303.5C 584.327,304.497 606.327,304.831 628.5,304.5C 628.216,302.585 628.549,300.919 629.5,299.5C 629.5,301.5 629.5,303.5 629.5,305.5C 603.831,305.919 578.164,306.085 552.5,306C 548.73,300.968 546.23,295.468 545,289.5C 546.044,288.377 546.71,287.044 547,285.5C 554.964,277.972 562.464,270.139 569.5,262C 572.282,261.055 574.949,260.888 577.5,261.5C 580.816,265.677 584.816,269.177 589.5,272C 597.214,272.87 603.714,270.37 609,264.5C 613.892,252.227 610.392,243.394 598.5,238C 595.167,237.333 591.833,237.333 588.5,238C 586.792,240.043 584.792,241.71 582.5,243C 580.338,247.143 578.671,251.477 577.5,256C 574.132,256.543 570.799,256.376 567.5,255.5C 569.912,253.838 572.746,252.838 576,252.5C 577.269,244.727 581.436,239.06 588.5,235.5C 590.916,232.38 590.916,229.213 588.5,226C 582.312,223.075 575.979,220.409 569.5,218C 567.146,215.31 567.813,214.81 571.5,216.5 Z"/></g>
<g><path style="opacity:0.563" fill="#010208" d="M 705.5,266.5 C 706.164,265.352 706.331,264.019 706,262.5C 712.55,274.026 722.05,277.526 734.5,273C 746.137,262.036 746.47,250.703 735.5,239C 734.551,238.383 733.718,238.549 733,239.5C 719.575,233.543 710.742,237.709 706.5,252C 695.5,252.333 684.5,252.667 673.5,253C 672.556,255.719 672.223,258.552 672.5,261.5C 683.167,261.5 693.833,261.5 704.5,261.5C 704.5,262.5 704.5,263.5 704.5,264.5C 693.162,264.667 681.828,264.5 670.5,264C 669.324,259.547 669.324,255.047 670.5,250.5C 681.838,250.667 693.172,250.5 704.5,250C 711.452,233.445 722.786,229.612 738.5,238.5C 748.982,249.667 749.149,261 739,272.5C 726.007,280.668 714.841,278.668 705.5,266.5 Z M 722.5,245.5 C 728.717,245.868 732.384,249.201 733.5,255.5C 732.58,260.752 729.58,264.085 724.5,265.5C 713.42,259.853 712.753,253.186 722.5,245.5 Z"/></g>
<g><path style="opacity:0.578" fill="#000005" d="M 607.5,231.5 C 615.106,234.304 622.44,237.638 629.5,241.5C 630.828,260.996 630.828,280.329 629.5,299.5C 628.549,300.919 628.216,302.585 628.5,304.5C 606.327,304.831 584.327,304.497 562.5,303.5C 564.167,303.5 565.833,303.5 567.5,303.5C 576.833,303.5 586.167,303.5 595.5,303.5C 606.167,303.5 616.833,303.5 627.5,303.5C 628.667,283.501 628.667,263.501 627.5,243.5C 619.622,239.394 611.622,235.561 603.5,232C 605.115,231.938 606.448,231.771 607.5,231.5 Z"/></g>
<g><path style="opacity:0.999" fill="#01111e" d="M 705.5,266.5 C 705.167,265.833 704.833,265.167 704.5,264.5C 704.5,263.5 704.5,262.5 704.5,261.5C 693.833,261.5 683.167,261.5 672.5,261.5C 672.223,258.552 672.556,255.719 673.5,253C 684.5,252.667 695.5,252.333 706.5,252C 710.742,237.709 719.575,233.543 733,239.5C 733.718,238.549 734.551,238.383 735.5,239C 746.47,250.703 746.137,262.036 734.5,273C 722.05,277.526 712.55,274.026 706,262.5C 706.331,264.019 706.164,265.352 705.5,266.5 Z M 722.5,245.5 C 712.753,253.186 713.42,259.853 724.5,265.5C 729.58,264.085 732.58,260.752 733.5,255.5C 732.384,249.201 728.717,245.868 722.5,245.5 Z"/></g>
<g><path style="opacity:1" fill="#0374b6" d="M 440.5,214.5 C 441.6,215.558 442.934,216.392 444.5,217C 442.285,217.17 440.285,217.837 438.5,219C 439.833,220.333 439.833,221.667 438.5,223C 440.124,224.117 441.124,225.617 441.5,227.5C 439.699,231.405 438.199,235.405 437,239.5C 435.106,242.844 432.273,244.178 428.5,243.5C 420.421,234.234 412.254,234.234 404,243.5C 400.435,249.071 399.602,255.071 401.5,261.5C 400.5,261.5 399.5,261.5 398.5,261.5C 398.539,263.359 397.706,264.692 396,265.5C 394.703,256.746 392.87,256.412 390.5,264.5C 388.579,265.641 386.579,265.808 384.5,265C 382.352,257.969 382.018,250.802 383.5,243.5C 390.641,241.119 397.308,237.786 403.5,233.5C 403.145,232.478 402.478,231.811 401.5,231.5C 414.34,225.657 427.34,219.99 440.5,214.5 Z"/></g>
<g><path style="opacity:1" fill="#020d1d" d="M 592.5,242.5 C 598.481,242.527 602.648,245.193 605,250.5C 606.533,259.134 603.033,264.467 594.5,266.5C 587.887,265.292 584.554,261.292 584.5,254.5C 583.737,248.03 586.403,244.03 592.5,242.5 Z"/></g>
<g><path style="opacity:1" fill="#03263e" d="M 339.5,261.5 C 329.167,261.5 318.833,261.5 308.5,261.5C 308.5,262.5 308.5,263.5 308.5,264.5C 300.549,277.411 289.549,280.578 275.5,274C 273.582,271.269 271.582,268.769 269.5,266.5C 273.587,270.055 278.254,272.888 283.5,275C 297.03,276.626 305.03,270.793 307.5,257.5C 306.69,241.172 298.357,234.339 282.5,237C 271.014,242.779 266.847,251.945 270,264.5C 269.841,262.657 269.341,261.991 268.5,262.5C 267.189,256.943 267.356,251.277 269,245.5C 276.588,234.305 286.755,231.138 299.5,236C 304.418,239.339 307.751,243.839 309.5,249.5C 319.483,250.332 329.483,250.832 339.5,251C 340.466,254.435 340.466,257.935 339.5,261.5 Z M 285.5,245.5 C 293.746,245.913 297.579,250.246 297,258.5C 291.53,266.423 286.197,266.423 281,258.5C 280.333,256.167 280.333,253.833 281,251.5C 282.752,249.649 284.252,247.649 285.5,245.5 Z"/></g>
<g><path style="opacity:1" fill="#0766a2" d="M 413.5,242.5 C 424.321,242.488 428.821,247.822 427,258.5C 424.695,265.792 419.862,268.292 412.5,266C 405.753,263.001 403.586,257.834 406,250.5C 407.316,249.026 408.316,247.359 409,245.5C 410.652,244.601 412.152,243.601 413.5,242.5 Z"/></g>
<g><path style="opacity:1" fill="#065d8e" d="M 491.5,206.5 C 488.38,214.2 489.046,221.533 493.5,228.5C 491.424,228.878 489.591,230.211 488,232.5C 487.379,236.25 486.546,239.916 485.5,243.5C 484.5,243.5 483.5,243.5 482.5,243.5C 481.398,250.113 480.732,256.78 480.5,263.5C 478.833,263.5 477.167,263.5 475.5,263.5C 475.405,268.887 475.905,274.22 477,279.5C 477.383,280.056 477.883,280.389 478.5,280.5C 476.695,284.487 473.695,285.987 469.5,285C 460.734,276.181 451.734,267.515 442.5,259C 439.945,257.556 437.279,256.389 434.5,255.5C 432.607,253.048 431.274,250.381 430.5,247.5C 431.822,247.33 432.989,247.663 434,248.5C 434.273,250.101 434.773,251.601 435.5,253C 439.112,254.139 442.446,255.806 445.5,258C 450.613,263.113 455.779,268.279 461,273.5C 463.668,272.02 463.835,270.52 461.5,269C 462.866,265.81 464.866,262.976 467.5,260.5C 470.494,262.066 471.494,261.399 470.5,258.5C 471.727,257.41 472.56,256.076 473,254.5C 473.333,250.833 473.667,247.167 474,243.5C 474.667,242.167 475.333,242.167 476,243.5C 477.774,241.487 477.607,239.487 475.5,237.5C 477.568,234.652 477.902,231.652 476.5,228.5C 476.957,227.702 477.624,227.369 478.5,227.5C 481.777,227.784 484.943,227.451 488,226.5C 487.519,223.613 487.019,220.613 486.5,217.5C 486.08,213.626 487.08,210.293 489.5,207.5C 490.167,207.167 490.833,206.833 491.5,206.5 Z"/></g>
<g><path style="opacity:1" fill="#044262" d="M 535.5,231.5 C 536.833,231.5 538.167,231.5 539.5,231.5C 539.668,237.155 541.001,242.488 543.5,247.5C 542.5,247.5 541.5,247.5 540.5,247.5C 540.111,254.17 539.611,260.836 539,267.5C 537.826,270.674 535.659,272.841 532.5,274C 535.345,276.786 535.011,278.12 531.5,278C 524.658,273.077 516.991,270.911 508.5,271.5C 508.168,258.483 508.501,245.483 509.5,232.5C 510.622,231.37 511.956,230.703 513.5,230.5C 511.915,232.108 510.749,233.775 510,235.5C 514.587,233.963 518.087,231.13 520.5,227C 522.677,225.798 525.011,225.298 527.5,225.5C 527.5,227.5 527.5,229.5 527.5,231.5C 530.167,231.5 532.833,231.5 535.5,231.5 Z"/></g>
<g><path style="opacity:0.795" fill="#012749" d="M 345.5,217.5 C 346.239,217.369 346.906,217.536 347.5,218C 346.507,238.091 346.173,258.257 346.5,278.5C 347.017,293.544 348.183,308.544 350,323.5C 352.551,335.421 355.051,347.421 357.5,359.5C 356.524,358.097 355.524,356.097 354.5,353.5C 350.082,340.712 347.248,327.378 346,313.5C 344.262,281.275 344.095,249.275 345.5,217.5 Z"/></g>
<g><path style="opacity:0.006" fill="#000310" d="M 339.5,261.5 C 339.586,262.496 339.252,263.329 338.5,264C 328.385,264.386 318.385,264.553 308.5,264.5C 308.5,263.5 308.5,262.5 308.5,261.5C 318.833,261.5 329.167,261.5 339.5,261.5 Z"/></g>
<g><path style="opacity:1" fill="#021926" d="M 664.5,224.5 C 664.333,246.836 664.5,269.169 665,291.5C 665.045,274.634 665.879,257.968 667.5,241.5C 667.071,263.188 666.404,284.855 665.5,306.5C 664.675,302.353 664.175,298.019 664,293.5C 662,308.169 660,322.836 658,337.5C 656.479,344.613 654.646,351.613 652.5,358.5C 651.912,360.907 650.912,363.24 649.5,365.5C 650.263,366.719 651.263,367.719 652.5,368.5C 651.757,369.182 651.091,369.849 650.5,370.5C 641.816,385.516 633.316,400.849 625,416.5C 620,423.5 615,430.5 610,437.5C 603.967,444.363 597.801,451.03 591.5,457.5C 590.844,455.516 590.178,453.516 589.5,451.5C 589.919,450.328 590.585,449.328 591.5,448.5C 587.463,447.491 583.463,446.491 579.5,445.5C 579.445,442.791 578.778,440.791 577.5,439.5C 614.99,400.451 635.157,353.785 638,299.5C 637.909,302.016 637.409,303.682 636.5,304.5C 636.8,291.501 637.133,278.501 637.5,265.5C 637.639,255.437 636.972,245.437 635.5,235.5C 622.326,230.006 609.326,224.339 596.5,218.5C 596.938,218.565 597.272,218.399 597.5,218C 596.833,217.667 596.167,217.333 595.5,217C 608.918,221.694 622.252,227.028 635.5,233C 638.332,233.326 640.999,232.826 643.5,231.5C 643.16,234.144 643.827,236.477 645.5,238.5C 648.768,239.487 652.102,239.82 655.5,239.5C 655.5,243.5 655.5,247.5 655.5,251.5C 656.833,251.5 658.167,251.5 659.5,251.5C 659.5,253.833 659.5,256.167 659.5,258.5C 660.5,258.5 661.5,258.5 662.5,258.5C 662.407,252.137 662.74,245.804 663.5,239.5C 662.167,239.5 660.833,239.5 659.5,239.5C 659.5,238.5 659.5,237.5 659.5,236.5C 661.124,236.64 662.29,235.973 663,234.5C 663.179,230.975 663.679,227.641 664.5,224.5 Z"/></g>
<g><path style="opacity:1" fill="#013856" d="M 269.5,266.5 C 268.566,265.432 268.232,264.099 268.5,262.5C 269.341,261.991 269.841,262.657 270,264.5C 266.847,251.945 271.014,242.779 282.5,237C 298.357,234.339 306.69,241.172 307.5,257.5C 305.03,270.793 297.03,276.626 283.5,275C 278.254,272.888 273.587,270.055 269.5,266.5 Z M 285.5,245.5 C 284.252,247.649 282.752,249.649 281,251.5C 280.333,253.833 280.333,256.167 281,258.5C 286.197,266.423 291.53,266.423 297,258.5C 297.579,250.246 293.746,245.913 285.5,245.5 Z"/></g>
<g><path style="opacity:0.196" fill="#041931" d="M 285.5,243.5 C 293.508,243.502 298.174,247.502 299.5,255.5C 298.559,262.441 294.559,266.441 287.5,267.5C 278.256,263.695 275.756,257.362 280,248.5C 281.73,246.598 283.563,244.931 285.5,243.5 Z M 285.5,245.5 C 284.252,247.649 282.752,249.649 281,251.5C 280.333,253.833 280.333,256.167 281,258.5C 286.197,266.423 291.53,266.423 297,258.5C 297.579,250.246 293.746,245.913 285.5,245.5 Z"/></g>
<g><path style="opacity:1" fill="#0672aa" d="M 401.5,231.5 C 402.478,231.811 403.145,232.478 403.5,233.5C 397.308,237.786 390.641,241.119 383.5,243.5C 382.018,250.802 382.352,257.969 384.5,265C 386.579,265.808 388.579,265.641 390.5,264.5C 392.87,256.412 394.703,256.746 396,265.5C 397.706,264.692 398.539,263.359 398.5,261.5C 399.5,261.5 400.5,261.5 401.5,261.5C 403.088,264.758 405.421,267.425 408.5,269.5C 408.461,270.583 408.127,271.583 407.5,272.5C 412.883,276.146 418.55,276.479 424.5,273.5C 424.833,274.167 425.167,274.833 425.5,275.5C 422.156,280.16 419.49,285.16 417.5,290.5C 418.724,292.839 418.724,295.172 417.5,297.5C 415.805,296.708 414.138,297.042 412.5,298.5C 413.934,299.23 415.1,300.23 416,301.5C 417.297,300.216 418.464,300.383 419.5,302C 407.488,302.358 395.488,302.858 383.5,303.5C 382.082,283.535 381.249,263.535 381,243.5C 380.786,263.008 380.62,282.341 380.5,301.5C 379.255,281.507 379.255,261.507 380.5,241.5C 387.408,237.878 394.408,234.545 401.5,231.5 Z"/></g>
<g><path style="opacity:1" fill="#01293f" d="M 567.5,303.5 C 565.833,303.5 564.167,303.5 562.5,303.5C 559.428,303.817 556.428,303.484 553.5,302.5C 551.11,298.887 549.11,295.054 547.5,291C 550.01,286.499 553.344,282.666 557.5,279.5C 558.922,279.291 560.255,278.791 561.5,278C 561.167,277.667 560.833,277.333 560.5,277C 563.579,275.752 566.246,273.919 568.5,271.5C 570.635,272.881 572.968,273.881 575.5,274.5C 580.139,276.642 580.305,278.642 576,280.5C 575.178,284.876 574.178,289.209 573,293.5C 571.282,294.85 569.448,296.017 567.5,297C 569.558,299.593 572.225,301.26 575.5,302C 572.635,302.183 569.969,302.683 567.5,303.5 Z"/></g>
<g><path style="opacity:1" fill="#001e2e" d="M 595.5,303.5 C 586.167,303.5 576.833,303.5 567.5,303.5C 569.969,302.683 572.635,302.183 575.5,302C 572.225,301.26 569.558,299.593 567.5,297C 569.448,296.017 571.282,294.85 573,293.5C 574.178,289.209 575.178,284.876 576,280.5C 580.305,278.642 580.139,276.642 575.5,274.5C 572.968,273.881 570.635,272.881 568.5,271.5C 566.246,273.919 563.579,275.752 560.5,277C 560.833,277.333 561.167,277.667 561.5,278C 560.255,278.791 558.922,279.291 557.5,279.5C 562.301,274.528 566.968,269.362 571.5,264C 572.5,263.833 573.5,263.667 574.5,263.5C 578.529,266.726 582.529,270.226 586.5,274C 593.608,275.096 600.442,274.263 607,271.5C 607.49,272.793 607.657,274.127 607.5,275.5C 608.833,275.5 610.167,275.5 611.5,275.5C 611.5,276.833 611.5,278.167 611.5,279.5C 615.5,279.5 619.5,279.5 623.5,279.5C 625.874,286.035 626.04,292.702 624,299.5C 623.51,298.207 623.343,296.873 623.5,295.5C 620.833,295.5 618.167,295.5 615.5,295.5C 615.5,297.5 615.5,299.5 615.5,301.5C 611.377,302.333 604.711,303 595.5,303.5 Z"/></g>
<g><path style="opacity:0.2" fill="#020919" d="M 309.5,318.5 C 309.389,317.883 309.056,317.383 308.5,317C 318.828,316.5 329.161,316.334 339.5,316.5C 339.5,313.5 339.5,310.5 339.5,307.5C 329.161,307.666 318.828,307.5 308.5,307C 305.642,301.136 301.642,296.136 296.5,292C 281.757,287.62 272.257,292.787 268,307.5C 266.543,321.529 272.71,329.529 286.5,331.5C 294.32,331.841 300.486,328.841 305,322.5C 305.278,323.416 305.778,324.082 306.5,324.5C 297.848,334.411 287.515,336.578 275.5,331C 265.781,323.309 262.947,313.475 267,301.5C 270.952,292.211 277.952,287.878 288,288.5C 298.905,289.066 306.071,294.566 309.5,305C 320.167,305.333 330.833,305.667 341.5,306C 342.833,310 342.833,314 341.5,318C 330.839,318.5 320.172,318.667 309.5,318.5 Z"/></g>
<g><path style="opacity:0.998" fill="#02335c" d="M 514.5,282.5 C 522.565,283.448 529.065,287.115 534,293.5C 534.464,294.094 534.631,294.761 534.5,295.5C 533.078,294.075 531.411,293.075 529.5,292.5C 525.029,289.527 520.195,287.194 515,285.5C 513.272,285.454 511.772,285.954 510.5,287C 513.423,289.103 514.09,291.769 512.5,295C 513.667,295.5 514.5,296.333 515,297.5C 517.042,296.715 519.042,297.048 521,298.5C 521.199,300.402 522.033,301.902 523.5,303C 522.584,303.278 521.918,303.778 521.5,304.5C 518.025,302.39 514.358,300.557 510.5,299C 507.518,298.502 504.518,298.335 501.5,298.5C 507.069,298.265 510.069,295.265 510.5,289.5C 509.737,288.281 508.737,287.281 507.5,286.5C 508.758,287.016 509.758,286.35 510.5,284.5C 506.878,283.675 503.211,283.175 499.5,283C 504.715,282.71 509.715,282.543 514.5,282.5 Z"/></g>
<g><path style="opacity:0.373" fill="#025688" d="M 514.5,282.5 C 509.715,282.543 504.715,282.71 499.5,283C 503.211,283.175 506.878,283.675 510.5,284.5C 509.758,286.35 508.758,287.016 507.5,286.5C 508.737,287.281 509.737,288.281 510.5,289.5C 510.069,295.265 507.069,298.265 501.5,298.5C 500.833,298.5 500.167,298.5 499.5,298.5C 494.515,300.01 490.182,302.51 486.5,306C 484.016,313.002 482.683,320.335 482.5,328C 482.718,332.367 483.718,336.533 485.5,340.5C 484.785,343.219 484.451,345.886 484.5,348.5C 486.977,349.88 486.977,350.88 484.5,351.5C 479.548,348.618 475.715,344.618 473,339.5C 472.617,340.056 472.117,340.389 471.5,340.5C 470.21,339.942 469.377,338.942 469,337.5C 461.48,312.399 469.313,294.233 492.5,283C 499.846,281.282 507.179,281.115 514.5,282.5 Z"/></g>
<g><path style="opacity:1" fill="#002f4a" d="M 529.5,292.5 C 533.592,296.938 536.925,301.938 539.5,307.5C 538.478,308.354 537.645,309.354 537,310.5C 536.667,309.833 536.333,309.167 536,308.5C 535.58,312.191 535.08,315.858 534.5,319.5C 532.5,319.5 530.5,319.5 528.5,319.5C 526.999,314.162 524.665,309.162 521.5,304.5C 521.918,303.778 522.584,303.278 523.5,303C 522.033,301.902 521.199,300.402 521,298.5C 519.042,297.048 517.042,296.715 515,297.5C 514.5,296.333 513.667,295.5 512.5,295C 514.09,291.769 513.423,289.103 510.5,287C 511.772,285.954 513.272,285.454 515,285.5C 520.195,287.194 525.029,289.527 529.5,292.5 Z"/></g>
<g><path style="opacity:0.988" fill="#03659b" d="M 408.5,269.5 C 414.493,273.541 420.493,273.375 426.5,269C 428.257,266.154 430.257,263.488 432.5,261C 433.899,260.405 435.232,260.572 436.5,261.5C 439.954,265.128 443.288,268.962 446.5,273C 447.5,273.333 448.5,273.667 449.5,274C 454.527,279.272 459.694,284.439 465,289.5C 466.109,292.947 465.109,295.614 462,297.5C 460.803,300.089 459.803,302.756 459,305.5C 433.239,306.661 407.406,306.828 381.5,306C 380.62,304.644 380.286,303.144 380.5,301.5C 380.62,282.341 380.786,263.008 381,243.5C 381.249,263.535 382.082,283.535 383.5,303.5C 395.488,302.858 407.488,302.358 419.5,302C 418.464,300.383 417.297,300.216 416,301.5C 415.1,300.23 413.934,299.23 412.5,298.5C 414.138,297.042 415.805,296.708 417.5,297.5C 418.724,295.172 418.724,292.839 417.5,290.5C 419.49,285.16 422.156,280.16 425.5,275.5C 425.167,274.833 424.833,274.167 424.5,273.5C 418.55,276.479 412.883,276.146 407.5,272.5C 408.127,271.583 408.461,270.583 408.5,269.5 Z"/></g>
<g><path style="opacity:1" fill="#011221" d="M 745.5,303.5 C 746.167,303.5 746.5,303.833 746.5,304.5C 746.426,313.834 742.76,321.667 735.5,328C 721.388,334.07 711.054,330.07 704.5,316C 693.172,315.5 681.838,315.333 670.5,315.5C 670.5,312.833 670.5,310.167 670.5,307.5C 681.838,307.667 693.172,307.5 704.5,307C 706.688,303.019 709.021,299.019 711.5,295C 725.881,286.474 736.715,289.641 744,304.5C 744.383,303.944 744.883,303.611 745.5,303.5 Z M 722.5,299.5 C 729.598,299.592 733.598,303.258 734.5,310.5C 733.25,316.082 729.917,319.749 724.5,321.5C 715.221,317.725 713.055,311.392 718,302.5C 719.652,301.601 721.152,300.601 722.5,299.5 Z"/></g>
<g><path style="opacity:1" fill="#023d6d" d="M 503.5,306.5 C 516.381,308.584 520.881,315.918 517,328.5C 509.453,336.448 501.787,336.448 494,328.5C 489.385,317.635 492.551,310.301 503.5,306.5 Z"/></g>
<g><path style="opacity:1" fill="#012439" d="M 309.5,318.5 C 308.514,320.426 307.514,322.426 306.5,324.5C 305.778,324.082 305.278,323.416 305,322.5C 300.486,328.841 294.32,331.841 286.5,331.5C 272.71,329.529 266.543,321.529 268,307.5C 272.257,292.787 281.757,287.62 296.5,292C 301.642,296.136 305.642,301.136 308.5,307C 318.828,307.5 329.161,307.666 339.5,307.5C 339.5,310.5 339.5,313.5 339.5,316.5C 329.161,316.334 318.828,316.5 308.5,317C 309.056,317.383 309.389,317.883 309.5,318.5 Z M 285.5,299.5 C 295.45,301.268 298.95,306.935 296,316.5C 289.957,323.295 284.29,322.961 279,315.5C 277,312.167 277,308.833 279,305.5C 281.063,303.266 283.229,301.266 285.5,299.5 Z"/></g>
<g><path style="opacity:0.945" fill="#02518e" d="M 424.5,312.5 C 424.737,313.791 424.404,314.791 423.5,315.5C 410.833,315.5 398.167,315.5 385.5,315.5C 386.051,318.807 386.384,322.14 386.5,325.5C 402.833,325.5 419.167,325.5 435.5,325.5C 434.9,326.9 433.9,327.9 432.5,328.5C 417.496,328.667 402.496,328.5 387.5,328C 383.359,323.792 381.359,318.625 381.5,312.5C 395.833,312.5 410.167,312.5 424.5,312.5 Z"/></g>
<g><path style="opacity:1" fill="#032038" d="M 529.5,292.5 C 531.411,293.075 533.078,294.075 534.5,295.5C 536.836,297.004 538.669,299.004 540,301.5C 549.216,321.278 545.716,338.444 529.5,353C 524.171,356.383 518.504,358.883 512.5,360.5C 510.5,359.833 508.5,359.167 506.5,358.5C 514.854,357.831 522.188,354.831 528.5,349.5C 526.677,348.509 525.177,347.176 524,345.5C 523.764,343.236 523.264,341.069 522.5,339C 518.959,340.259 515.292,341.259 511.5,342C 514.503,340.834 517.17,339.167 519.5,337C 519.272,336.601 518.938,336.435 518.5,336.5C 526.108,326.995 526.442,317.162 519.5,307C 517.545,306.047 515.878,304.713 514.5,303C 512.975,301.991 511.308,301.491 509.5,301.5C 506.452,299.881 503.119,298.881 499.5,298.5C 500.167,298.5 500.833,298.5 501.5,298.5C 504.518,298.335 507.518,298.502 510.5,299C 514.358,300.557 518.025,302.39 521.5,304.5C 524.665,309.162 526.999,314.162 528.5,319.5C 530.5,319.5 532.5,319.5 534.5,319.5C 535.08,315.858 535.58,312.191 536,308.5C 536.333,309.167 536.667,309.833 537,310.5C 537.645,309.354 538.478,308.354 539.5,307.5C 536.925,301.938 533.592,296.938 529.5,292.5 Z"/></g>
<g><path style="opacity:1" fill="#011a2f" d="M 554.5,313.5 C 558.97,312.514 563.637,312.181 568.5,312.5C 567.737,313.268 566.737,313.768 565.5,314C 571.072,315.351 576.738,315.851 582.5,315.5C 581.194,316.467 580.527,317.801 580.5,319.5C 581.5,319.5 582.5,319.5 583.5,319.5C 583.253,321.858 583.919,323.858 585.5,325.5C 575.56,325.839 565.56,325.839 555.5,325.5C 555.817,321.298 555.483,317.298 554.5,313.5 Z"/></g>
<g><path style="opacity:1" fill="#0068ac" d="M 423.5,315.5 C 430.825,316.529 438.158,317.029 445.5,317C 444.019,317.98 442.685,319.147 441.5,320.5C 444.049,321.284 446.382,322.451 448.5,324C 444.27,325.29 439.936,325.79 435.5,325.5C 419.167,325.5 402.833,325.5 386.5,325.5C 386.384,322.14 386.051,318.807 385.5,315.5C 398.167,315.5 410.833,315.5 423.5,315.5 Z"/></g>
<g><path style="opacity:1" fill="#016196" d="M 424.5,312.5 C 435.5,312.5 446.5,312.5 457.5,312.5C 457.805,317.762 457.471,322.928 456.5,328C 448.507,328.5 440.507,328.666 432.5,328.5C 433.9,327.9 434.9,326.9 435.5,325.5C 439.936,325.79 444.27,325.29 448.5,324C 446.382,322.451 444.049,321.284 441.5,320.5C 442.685,319.147 444.019,317.98 445.5,317C 438.158,317.029 430.825,316.529 423.5,315.5C 424.404,314.791 424.737,313.791 424.5,312.5 Z"/></g>
<g><path style="opacity:1" fill="#063c58" d="M 372.5,287.5 C 373.61,296.322 374.443,305.322 375,314.5C 375.717,315.044 376.217,315.711 376.5,316.5C 375.5,316.5 374.5,316.5 373.5,316.5C 373.485,308.804 372.985,301.138 372,293.5C 371.57,303.202 372.07,312.869 373.5,322.5C 373.46,324.429 373.127,326.262 372.5,328C 374.03,333.042 375.197,338.208 376,343.5C 380.309,348.075 381.476,353.409 379.5,359.5C 378.167,359.5 376.833,359.5 375.5,359.5C 375.5,358.5 375.5,357.5 375.5,356.5C 374.167,356.5 372.833,356.5 371.5,356.5C 371.5,357.5 371.5,358.5 371.5,359.5C 370.178,359.33 369.011,359.663 368,360.5C 367.693,365.882 367.026,371.215 366,376.5C 365.506,374.866 365.34,373.199 365.5,371.5C 361.973,370.602 358.473,369.602 355,368.5C 353.794,365.153 354.794,362.82 358,361.5C 358.692,360.563 358.525,359.897 357.5,359.5C 355.051,347.421 352.551,335.421 350,323.5C 348.183,308.544 347.017,293.544 346.5,278.5C 348.642,279.598 349.975,278.764 350.5,276C 354.821,275.501 359.154,275.334 363.5,275.5C 363.335,279.182 363.501,282.848 364,286.5C 366.509,290.777 367.842,295.444 368,300.5C 368.974,302.878 369.641,302.544 370,299.5C 370.333,278.167 370.667,256.833 371,235.5C 371.168,253.005 371.668,270.338 372.5,287.5 Z"/></g>
<g><path style="opacity:0.882" fill="#030a19" d="M 283.5,297.5 C 293.291,296.796 298.625,301.296 299.5,311C 299.381,319.119 295.214,323.286 287,323.5C 282.825,322.46 278.992,320.793 275.5,318.5C 275.334,314.154 275.501,309.821 276,305.5C 278.294,302.527 280.794,299.86 283.5,297.5 Z M 285.5,299.5 C 283.229,301.266 281.063,303.266 279,305.5C 277,308.833 277,312.167 279,315.5C 284.29,322.961 289.957,323.295 296,316.5C 298.95,306.935 295.45,301.268 285.5,299.5 Z"/></g>
<g><path style="opacity:0.367" fill="#00020a" d="M 554.5,313.5 C 555.483,317.298 555.817,321.298 555.5,325.5C 565.56,325.839 575.56,325.839 585.5,325.5C 598.5,325.5 611.5,325.5 624.5,325.5C 625.61,321.949 625.61,318.449 624.5,315C 610.5,314.773 596.5,314.939 582.5,315.5C 576.738,315.851 571.072,315.351 565.5,314C 566.737,313.768 567.737,313.268 568.5,312.5C 587.323,312.653 605.989,312.153 624.5,311C 625.766,311.309 626.933,311.809 628,312.5C 628.332,317.19 627.998,321.857 627,326.5C 626.5,327 626,327.5 625.5,328C 601.502,328.5 577.502,328.667 553.5,328.5C 553.179,323.305 553.513,318.305 554.5,313.5 Z"/></g>
<g><path style="opacity:1" fill="#01131f" d="M 585.5,325.5 C 583.919,323.858 583.253,321.858 583.5,319.5C 582.5,319.5 581.5,319.5 580.5,319.5C 580.527,317.801 581.194,316.467 582.5,315.5C 596.5,314.939 610.5,314.773 624.5,315C 625.61,318.449 625.61,321.949 624.5,325.5C 611.5,325.5 598.5,325.5 585.5,325.5 Z"/></g>
<g><path style="opacity:0.334" fill="#000104" d="M 745.5,303.5 C 744.883,303.611 744.383,303.944 744,304.5C 736.715,289.641 725.881,286.474 711.5,295C 709.021,299.019 706.688,303.019 704.5,307C 693.172,307.5 681.838,307.667 670.5,307.5C 670.5,310.167 670.5,312.833 670.5,315.5C 681.838,315.333 693.172,315.5 704.5,316C 711.054,330.07 721.388,334.07 735.5,328C 742.76,321.667 746.426,313.834 746.5,304.5C 748.039,310.32 747.539,315.987 745,321.5C 736.735,333.919 725.902,336.752 712.5,330C 708.381,326.557 705.048,322.557 702.5,318C 690.918,317.8 679.418,317.633 668,317.5C 667.204,313.245 667.371,309.079 668.5,305C 680.52,305.404 692.52,305.237 704.5,304.5C 706.606,293.341 713.439,288.007 725,288.5C 735.946,287.953 742.779,292.953 745.5,303.5 Z M 722.5,299.5 C 721.152,300.601 719.652,301.601 718,302.5C 713.055,311.392 715.221,317.725 724.5,321.5C 729.917,319.749 733.25,316.082 734.5,310.5C 733.598,303.258 729.598,299.592 722.5,299.5 Z"/></g>
<g><path style="opacity:1" fill="#024871" d="M 499.5,298.5 C 503.119,298.881 506.452,299.881 509.5,301.5C 504.677,300.019 500.01,300.519 495.5,303C 483.841,313.106 482.508,324.273 491.5,336.5C 490.761,336.369 490.094,336.536 489.5,337C 491.5,339 493.5,341 495.5,343C 498.443,343.29 500.943,344.456 503,346.5C 504.538,345.251 505.705,345.418 506.5,347C 507.993,350.028 507.326,352.528 504.5,354.5C 504.709,355.086 505.043,355.586 505.5,356C 503.75,357.319 501.75,357.819 499.5,357.5C 494.117,356.266 489.117,354.266 484.5,351.5C 486.977,350.88 486.977,349.88 484.5,348.5C 484.451,345.886 484.785,343.219 485.5,340.5C 483.718,336.533 482.718,332.367 482.5,328C 482.683,320.335 484.016,313.002 486.5,306C 490.182,302.51 494.515,300.01 499.5,298.5 Z"/></g>
<g><path style="opacity:0.656" fill="#00020b" d="M 557.5,364.5 C 557.942,363.769 558.109,362.769 558,361.5C 563.424,367.431 569.258,372.764 575.5,377.5C 583.012,368.063 592.346,366.063 603.5,371.5C 604.5,373.167 605.833,374.5 607.5,375.5C 608.192,374.975 608.692,374.308 609,373.5C 613.748,362.521 617.582,351.188 620.5,339.5C 610.856,338.502 601.19,338.168 591.5,338.5C 578.848,337.739 566.181,337.405 553.5,337.5C 552.654,342.374 550.654,346.707 547.5,350.5C 550.317,353.818 553.317,356.985 556.5,360C 555.584,360.278 554.918,360.778 554.5,361.5C 550.536,358.53 547.202,354.863 544.5,350.5C 547.44,345.618 550.107,340.618 552.5,335.5C 558.167,335.167 563.833,334.833 569.5,334.5C 587.143,335.691 604.81,336.524 622.5,337C 622.957,337.414 623.291,337.914 623.5,338.5C 619.793,352.396 615.127,365.896 609.5,379C 608.167,379.667 606.833,379.667 605.5,379C 604.5,377.333 603.5,375.667 602.5,374C 592.491,368.737 584.157,370.737 577.5,380C 575.833,380.667 574.167,380.667 572.5,380C 567.297,374.965 562.297,369.798 557.5,364.5 Z"/></g>
<g><path style="opacity:1" fill="#001420" d="M 591.5,338.5 C 601.19,338.168 610.856,338.502 620.5,339.5C 617.582,351.188 613.748,362.521 609,373.5C 608.692,374.308 608.192,374.975 607.5,375.5C 605.833,374.5 604.5,373.167 603.5,371.5C 592.346,366.063 583.012,368.063 575.5,377.5C 575.085,375.253 574.418,373.086 573.5,371C 573.493,369.188 574.16,367.688 575.5,366.5C 580.544,363.976 585.877,362.643 591.5,362.5C 591.5,358.833 591.5,355.167 591.5,351.5C 592.833,351.5 594.167,351.5 595.5,351.5C 595.929,347.743 595.263,344.243 593.5,341C 591.065,340.925 590.398,340.092 591.5,338.5 Z"/></g>
<g><path style="opacity:1" fill="#066391" d="M 435.5,334.5 C 435.611,335.117 435.944,335.617 436.5,336C 430.833,336.333 425.167,336.667 419.5,337C 427.5,337.333 435.5,337.667 443.5,338C 444.167,338.333 444.833,338.667 445.5,339C 443.423,339.192 441.423,339.692 439.5,340.5C 443.335,341.996 443.335,342.996 439.5,343.5C 439.657,344.873 439.49,346.207 439,347.5C 437.415,348.376 436.415,349.709 436,351.5C 435.667,354.167 435.333,356.833 435,359.5C 433.242,360.469 432.742,361.636 433.5,363C 432.451,363.492 431.451,363.326 430.5,362.5C 429.572,364.335 428.406,364.668 427,363.5C 425.562,364.9 424.729,366.567 424.5,368.5C 420.107,368.457 419.774,368.957 423.5,370C 422.906,370.464 422.239,370.631 421.5,370.5C 418.15,370.335 414.817,370.502 411.5,371C 407.698,372.814 404.531,375.314 402,378.5C 400.739,378.241 399.739,377.574 399,376.5C 395.788,365.971 392.121,355.638 388,345.5C 386.892,341.914 386.392,338.247 386.5,334.5C 402.833,334.5 419.167,334.5 435.5,334.5 Z"/></g>
<g><path style="opacity:0.49" fill="#01324d" d="M 491.5,336.5 C 500.518,343.162 509.518,343.162 518.5,336.5C 518.938,336.435 519.272,336.601 519.5,337C 517.17,339.167 514.503,340.834 511.5,342C 515.292,341.259 518.959,340.259 522.5,339C 523.264,341.069 523.764,343.236 524,345.5C 525.177,347.176 526.677,348.509 528.5,349.5C 522.188,354.831 514.854,357.831 506.5,358.5C 503.941,358.802 501.607,358.468 499.5,357.5C 501.75,357.819 503.75,357.319 505.5,356C 505.043,355.586 504.709,355.086 504.5,354.5C 507.326,352.528 507.993,350.028 506.5,347C 505.705,345.418 504.538,345.251 503,346.5C 500.943,344.456 498.443,343.29 495.5,343C 493.5,341 491.5,339 489.5,337C 490.094,336.536 490.761,336.369 491.5,336.5 Z"/></g>
<g><path style="opacity:1" fill="#011d2d" d="M 591.5,338.5 C 590.398,340.092 591.065,340.925 593.5,341C 595.263,344.243 595.929,347.743 595.5,351.5C 594.167,351.5 592.833,351.5 591.5,351.5C 591.5,355.167 591.5,358.833 591.5,362.5C 585.877,362.643 580.544,363.976 575.5,366.5C 574.16,367.688 573.493,369.188 573.5,371C 574.418,373.086 575.085,375.253 575.5,377.5C 569.258,372.764 563.424,367.431 558,361.5C 558.109,362.769 557.942,363.769 557.5,364.5C 556.167,363.833 555.167,362.833 554.5,361.5C 554.918,360.778 555.584,360.278 556.5,360C 553.317,356.985 550.317,353.818 547.5,350.5C 550.654,346.707 552.654,342.374 553.5,337.5C 566.181,337.405 578.848,337.739 591.5,338.5 Z"/></g>
<g><path style="opacity:1" fill="#045281" d="M 435.5,334.5 C 442.508,334.334 449.508,334.5 456.5,335C 459.571,340.124 462.904,344.958 466.5,349.5C 466.023,350.931 465.357,352.264 464.5,353.5C 455.054,362.235 445.721,371.069 436.5,380C 435.5,380.667 434.5,380.667 433.5,380C 430.745,375.059 426.745,371.892 421.5,370.5C 422.239,370.631 422.906,370.464 423.5,370C 419.774,368.957 420.107,368.457 424.5,368.5C 424.729,366.567 425.562,364.9 427,363.5C 428.406,364.668 429.572,364.335 430.5,362.5C 431.451,363.326 432.451,363.492 433.5,363C 432.742,361.636 433.242,360.469 435,359.5C 435.333,356.833 435.667,354.167 436,351.5C 436.415,349.709 437.415,348.376 439,347.5C 439.49,346.207 439.657,344.873 439.5,343.5C 443.335,342.996 443.335,341.996 439.5,340.5C 441.423,339.692 443.423,339.192 445.5,339C 444.833,338.667 444.167,338.333 443.5,338C 435.5,337.667 427.5,337.333 419.5,337C 425.167,336.667 430.833,336.333 436.5,336C 435.944,335.617 435.611,335.117 435.5,334.5 Z"/></g>
<g><path style="opacity:1" fill="#01101d" d="M 650.5,370.5 C 651.091,369.849 651.757,369.182 652.5,368.5C 651.263,367.719 650.263,366.719 649.5,365.5C 650.912,363.24 651.912,360.907 652.5,358.5C 652.33,359.822 652.663,360.989 653.5,362C 671.176,362.833 688.843,362.666 706.5,361.5C 710.059,351.715 717.059,347.549 727.5,349C 739.552,352.733 744.719,360.9 743,373.5C 736.347,386.971 726.181,390.471 712.5,384C 708.339,380.846 705.839,376.679 705,371.5C 704.25,370.874 703.416,370.374 702.5,370C 685.193,370.395 667.859,370.562 650.5,370.5 Z M 724.5,357.5 C 733.872,361.536 735.539,367.536 729.5,375.5C 721.698,379.097 717.032,376.597 715.5,368C 715.542,366.033 716.042,364.199 717,362.5C 719.426,360.548 721.926,358.881 724.5,357.5 Z"/></g>
<g><path style="opacity:0.388" fill="#022250" d="M 484.5,351.5 C 489.117,354.266 494.117,356.266 499.5,357.5C 501.607,358.468 503.941,358.802 506.5,358.5C 508.5,359.167 510.5,359.833 512.5,360.5C 497.101,362.049 484.268,357.049 474,345.5C 473.634,343.548 472.801,341.882 471.5,340.5C 472.117,340.389 472.617,340.056 473,339.5C 475.715,344.618 479.548,348.618 484.5,351.5 Z"/></g>
<g><path style="opacity:1" fill="#031e31" d="M 353.5,362.5 C 351.94,365.459 352.273,368.126 354.5,370.5C 339.163,370.333 323.83,370.5 308.5,371C 302.952,385.291 292.952,389.958 278.5,385C 276.333,382.833 274.167,380.667 272,378.5C 271.722,379.416 271.222,380.082 270.5,380.5C 269.125,377.627 268.125,374.627 267.5,371.5C 269.045,372.23 269.878,373.563 270,375.5C 270.148,369.751 270.814,364.085 272,358.5C 275.274,354.551 279.107,351.384 283.5,349C 294.896,347.032 302.896,351.365 307.5,362C 322.83,362.5 338.163,362.667 353.5,362.5 Z M 287.5,357.5 C 298.465,361.702 300.132,368.035 292.5,376.5C 289.589,377.983 286.922,377.65 284.5,375.5C 278.588,368.305 279.588,362.305 287.5,357.5 Z"/></g>
<g><path style="opacity:0.443" fill="#020c1b" d="M 353.5,360.5 C 353.5,361.167 353.5,361.833 353.5,362.5C 338.163,362.667 322.83,362.5 307.5,362C 302.896,351.365 294.896,347.032 283.5,349C 279.107,351.384 275.274,354.551 272,358.5C 270.814,364.085 270.148,369.751 270,375.5C 269.878,373.563 269.045,372.23 267.5,371.5C 267.272,366.325 268.105,361.325 270,356.5C 281.965,342.227 294.298,341.894 307,355.5C 308.009,357.025 308.509,358.692 308.5,360.5C 323.5,360.5 338.5,360.5 353.5,360.5 Z"/></g>
<g><path style="opacity:1" fill="#01273c" d="M 509.5,421.5 C 508.503,405.008 508.17,388.342 508.5,371.5C 515.723,371.858 522.389,370.191 528.5,366.5C 530.943,368.055 533.61,368.722 536.5,368.5C 536.731,378.977 535.731,389.31 533.5,399.5C 531.5,399.5 529.5,399.5 527.5,399.5C 527.5,402.167 527.5,404.833 527.5,407.5C 524.753,407.813 522.086,407.48 519.5,406.5C 522.229,404.633 521.896,403.633 518.5,403.5C 518.481,405.06 518.148,406.56 517.5,408C 520.181,410.557 519.515,411.724 515.5,411.5C 515.762,410.022 515.429,408.689 514.5,407.5C 513.575,406.359 512.741,406.359 512,407.5C 511.333,410.5 511.333,413.5 512,416.5C 514.604,418.231 517.104,420.065 519.5,422C 518.874,422.75 518.374,423.584 518,424.5C 515.667,422.833 513.333,421.167 511,419.5C 510.722,420.416 510.222,421.082 509.5,421.5 Z"/></g>
<g><path style="opacity:0.679" fill="#000009" d="M 354.5,370.5 C 355.873,370.343 357.207,370.51 358.5,371C 356.618,371.198 354.952,371.698 353.5,372.5C 339.507,372.476 325.507,372.809 311.5,373.5C 308.447,378.063 304.78,382.229 300.5,386C 288.823,392.061 278.823,390.227 270.5,380.5C 271.222,380.082 271.722,379.416 272,378.5C 274.167,380.667 276.333,382.833 278.5,385C 292.952,389.958 302.952,385.291 308.5,371C 323.83,370.5 339.163,370.333 354.5,370.5 Z"/></g>
<g><path style="opacity:1" fill="#042b41" d="M 376.5,316.5 C 377.757,332.798 381.424,348.465 387.5,363.5C 386.25,363.423 385.417,362.756 385,361.5C 384.833,362 384.667,362.5 384.5,363C 391.978,382.463 401.645,400.629 413.5,417.5C 413.023,418.478 412.357,419.311 411.5,420C 412.337,421.011 412.67,422.178 412.5,423.5C 413.5,423.5 414.5,423.5 415.5,423.5C 415.5,424.833 415.5,426.167 415.5,427.5C 416.5,427.5 417.5,427.5 418.5,427.5C 418.297,429.39 418.963,430.89 420.5,432C 422.591,433.726 424.924,434.893 427.5,435.5C 427.874,439.336 427.874,443.336 427.5,447.5C 428.833,447.5 430.167,447.5 431.5,447.5C 431.167,450.5 432.5,451.833 435.5,451.5C 436.167,454.167 436.833,456.833 437.5,459.5C 433.833,459.5 430.167,459.5 426.5,459.5C 426.286,461.144 426.62,462.644 427.5,464C 426.167,464.667 424.833,464.667 423.5,464C 396.611,437.78 376.111,407.28 362,372.5C 361.536,373.094 361.369,373.761 361.5,374.5C 359.2,372.798 356.533,372.132 353.5,372.5C 354.952,371.698 356.618,371.198 358.5,371C 357.207,370.51 355.873,370.343 354.5,370.5C 352.273,368.126 351.94,365.459 353.5,362.5C 353.5,361.833 353.5,361.167 353.5,360.5C 354.376,360.631 355.043,360.298 355.5,359.5C 354.652,357.591 354.318,355.591 354.5,353.5C 355.524,356.097 356.524,358.097 357.5,359.5C 358.525,359.897 358.692,360.563 358,361.5C 354.794,362.82 353.794,365.153 355,368.5C 358.473,369.602 361.973,370.602 365.5,371.5C 365.34,373.199 365.506,374.866 366,376.5C 367.026,371.215 367.693,365.882 368,360.5C 369.011,359.663 370.178,359.33 371.5,359.5C 371.5,358.5 371.5,357.5 371.5,356.5C 372.833,356.5 374.167,356.5 375.5,356.5C 375.5,357.5 375.5,358.5 375.5,359.5C 376.833,359.5 378.167,359.5 379.5,359.5C 381.476,353.409 380.309,348.075 376,343.5C 375.197,338.208 374.03,333.042 372.5,328C 373.127,326.262 373.46,324.429 373.5,322.5C 372.07,312.869 371.57,303.202 372,293.5C 372.985,301.138 373.485,308.804 373.5,316.5C 374.5,316.5 375.5,316.5 376.5,316.5 Z"/></g>
<g><path style="opacity:0.607" fill="#01030d" d="M 577.5,439.5 C 556.76,460.565 532.76,476.898 505.5,488.5C 490.191,482.678 475.857,475.012 462.5,465.5C 445.91,453.078 431.077,438.745 418,422.5C 417.415,421.002 417.915,420.002 419.5,419.5C 441.903,449.002 470.403,471.002 505,485.5C 561.768,460.066 601.435,418.4 624,360.5C 626.282,350.995 628.949,341.662 632,332.5C 633.513,323.026 635.013,313.693 636.5,304.5C 637.409,303.682 637.909,302.016 638,299.5C 635.157,353.785 614.99,400.451 577.5,439.5 Z"/></g>
<g><path style="opacity:1" fill="#030e20" d="M 589.5,376.5 C 601.784,376.396 605.618,382.063 601,393.5C 593.575,399.53 587.241,398.53 582,390.5C 581.291,384.058 583.791,379.392 589.5,376.5 Z"/></g>
<g><path style="opacity:1" fill="#011c2a" d="M 546.5,362.5 C 544.891,362.094 543.557,362.094 542.5,362.5C 550.854,370.351 559.188,378.518 567.5,387C 569.98,387.96 572.48,388.793 575,389.5C 575.332,392.506 576.166,395.34 577.5,398C 577.167,398.333 576.833,398.667 576.5,399C 577.376,400.586 578.376,402.086 579.5,403.5C 582.93,404.381 586.263,405.548 589.5,407C 587.978,409.305 585.978,410.805 583.5,411.5C 583.762,412.978 583.429,414.311 582.5,415.5C 561.419,440.069 536.419,459.902 507.5,475C 503.438,475.879 499.771,475.046 496.5,472.5C 497.209,471.596 498.209,471.263 499.5,471.5C 499.328,469.508 499.995,467.842 501.5,466.5C 498.718,465.048 496.218,465.381 494,467.5C 492.5,466.667 491.333,465.5 490.5,464C 493.553,463.821 496.553,463.321 499.5,462.5C 497.67,459.944 495.003,457.777 491.5,456C 493.481,455.395 493.815,454.395 492.5,453C 493.996,452.493 495.163,452.993 496,454.5C 496.464,453.906 496.631,453.239 496.5,452.5C 507.035,457.481 515.202,454.481 521,443.5C 521.729,439.623 521.562,435.789 520.5,432C 517.584,427.581 513.917,424.081 509.5,421.5C 510.222,421.082 510.722,420.416 511,419.5C 513.333,421.167 515.667,422.833 518,424.5C 518.374,423.584 518.874,422.75 519.5,422C 517.104,420.065 514.604,418.231 512,416.5C 511.333,413.5 511.333,410.5 512,407.5C 512.741,406.359 513.575,406.359 514.5,407.5C 515.429,408.689 515.762,410.022 515.5,411.5C 519.515,411.724 520.181,410.557 517.5,408C 518.148,406.56 518.481,405.06 518.5,403.5C 521.896,403.633 522.229,404.633 519.5,406.5C 522.086,407.48 524.753,407.813 527.5,407.5C 527.5,404.833 527.5,402.167 527.5,399.5C 529.5,399.5 531.5,399.5 533.5,399.5C 535.731,389.31 536.731,378.977 536.5,368.5C 533.61,368.722 530.943,368.055 528.5,366.5C 522.389,370.191 515.723,371.858 508.5,371.5C 508.414,370.504 508.748,369.671 509.5,369C 520.074,368.546 529.074,364.546 536.5,357C 541.07,356.371 544.404,358.204 546.5,362.5 Z"/></g>
<g><path style="opacity:0.649" fill="#04508a" d="M 413.5,376.5 C 426.666,376.659 430.666,382.826 425.5,395C 411.995,400.502 406.495,396.002 409,381.5C 410.025,379.313 411.525,377.646 413.5,376.5 Z"/></g>
<g><path style="opacity:1" fill="#055076" d="M 450.5,431.5 C 450.404,435.311 449.738,435.311 448.5,431.5C 447.265,432.34 446.265,433.34 445.5,434.5C 444.399,433.2 443.066,432.7 441.5,433C 443.373,434.704 445.04,436.537 446.5,438.5C 440.276,432.779 434.109,426.779 428,420.5C 424.41,415.604 420.91,410.604 417.5,405.5C 420.862,403.392 424.529,401.725 428.5,400.5C 431.917,397.309 433.417,393.309 433,388.5C 435.624,386.965 438.457,385.798 441.5,385C 443.381,381.617 446.048,379.117 449.5,377.5C 449.369,378.239 449.536,378.906 450,379.5C 456.694,372.806 463.36,366.14 470,359.5C 472.66,361.711 474.16,364.211 474.5,367C 473.652,369.77 473.319,372.603 473.5,375.5C 468.676,375.888 466.676,378.555 467.5,383.5C 465.5,383.5 463.5,383.5 461.5,383.5C 461.666,388.179 461.499,392.845 461,397.5C 459.086,398.676 459.252,399.676 461.5,400.5C 458.73,406.578 456.73,412.912 455.5,419.5C 454.167,419.5 452.833,419.5 451.5,419.5C 451.605,423.548 451.272,427.548 450.5,431.5 Z"/></g>
<g><path style="opacity:1" fill="#064869" d="M 483.5,364.5 C 484.54,369.665 487.54,372.665 492.5,373.5C 492.5,374.5 492.5,375.5 492.5,376.5C 493.5,376.5 494.5,376.5 495.5,376.5C 495.719,377.675 495.386,378.675 494.5,379.5C 491.983,381.722 489.649,384.055 487.5,386.5C 486.311,387.429 484.978,387.762 483.5,387.5C 483.5,388.833 483.5,390.167 483.5,391.5C 481.459,391.146 479.626,391.146 478,391.5C 479.028,396.701 479.528,402.034 479.5,407.5C 478.178,407.33 477.011,407.663 476,408.5C 475.503,410.81 475.337,413.143 475.5,415.5C 474.167,415.5 472.833,415.5 471.5,415.5C 472.324,420.445 470.324,423.112 465.5,423.5C 465.167,426.167 464.833,428.833 464.5,431.5C 465.5,431.5 466.5,431.5 467.5,431.5C 465.621,434.934 463.955,438.601 462.5,442.5C 461.669,436.009 458.002,433.342 451.5,434.5C 451.737,433.209 451.404,432.209 450.5,431.5C 451.272,427.548 451.605,423.548 451.5,419.5C 452.833,419.5 454.167,419.5 455.5,419.5C 456.73,412.912 458.73,406.578 461.5,400.5C 459.252,399.676 459.086,398.676 461,397.5C 461.499,392.845 461.666,388.179 461.5,383.5C 463.5,383.5 465.5,383.5 467.5,383.5C 466.676,378.555 468.676,375.888 473.5,375.5C 473.319,372.603 473.652,369.77 474.5,367C 474.16,364.211 472.66,361.711 470,359.5C 463.36,366.14 456.694,372.806 450,379.5C 449.536,378.906 449.369,378.239 449.5,377.5C 455.477,370.414 461.811,363.58 468.5,357C 470.167,356.333 471.833,356.333 473.5,357C 476.192,360.548 479.525,363.048 483.5,364.5 Z"/></g>
<g><path style="opacity:1" fill="#043d5b" d="M 483.5,364.5 C 489.208,367.804 495.375,369.804 502,370.5C 502.79,387.198 502.623,403.865 501.5,420.5C 500.756,404.31 500.423,387.976 500.5,371.5C 499.663,387.198 499.33,403.198 499.5,419.5C 498.167,419.5 496.833,419.5 495.5,419.5C 495.286,417.856 495.62,416.356 496.5,415C 494.341,414.088 492.175,413.255 490,412.5C 489.333,413.167 488.667,413.833 488,414.5C 487.666,418.199 487.499,421.699 487.5,425C 488.308,425.308 488.975,425.808 489.5,426.5C 486.174,431.627 485.174,437.127 486.5,443C 484.827,447.364 483.66,451.864 483,456.5C 482.535,457.931 481.701,459.097 480.5,460C 481.888,460.889 481.722,461.389 480,461.5C 467.178,454.177 455.678,445.177 445.5,434.5C 446.265,433.34 447.265,432.34 448.5,431.5C 449.738,435.311 450.404,435.311 450.5,431.5C 451.404,432.209 451.737,433.209 451.5,434.5C 458.002,433.342 461.669,436.009 462.5,442.5C 463.955,438.601 465.621,434.934 467.5,431.5C 466.5,431.5 465.5,431.5 464.5,431.5C 464.833,428.833 465.167,426.167 465.5,423.5C 470.324,423.112 472.324,420.445 471.5,415.5C 472.833,415.5 474.167,415.5 475.5,415.5C 475.337,413.143 475.503,410.81 476,408.5C 477.011,407.663 478.178,407.33 479.5,407.5C 479.528,402.034 479.028,396.701 478,391.5C 479.626,391.146 481.459,391.146 483.5,391.5C 483.5,390.167 483.5,388.833 483.5,387.5C 484.978,387.762 486.311,387.429 487.5,386.5C 489.649,384.055 491.983,381.722 494.5,379.5C 495.386,378.675 495.719,377.675 495.5,376.5C 494.5,376.5 493.5,376.5 492.5,376.5C 492.5,375.5 492.5,374.5 492.5,373.5C 487.54,372.665 484.54,369.665 483.5,364.5 Z"/></g>
<g><path style="opacity:1" fill="#03192e" d="M 500.5,427.5 C 511.774,426.275 516.941,431.275 516,442.5C 508.667,453.167 501.333,453.167 494,442.5C 492.703,435.974 494.869,430.974 500.5,427.5 Z"/></g>
<g><path style="opacity:0.383" fill="#000104" d="M 665.5,306.5 C 663.113,324.838 659.446,342.838 654.5,360.5C 671.167,360.5 687.833,360.5 704.5,360.5C 709.007,348.41 717.674,343.91 730.5,347C 744.267,352.942 748.767,363.109 744,377.5C 734.728,390.676 723.061,393.009 709,384.5C 706.316,381.131 704.149,377.464 702.5,373.5C 685.51,372.334 668.51,372.167 651.5,373C 643.47,388.143 635.303,403.31 627,418.5C 619.244,428.9 611.578,439.233 604,449.5C 593.489,460.677 582.323,471.177 570.5,481C 549.734,495.229 528.067,508.229 505.5,520C 504.5,520.667 503.5,520.667 502.5,520C 488.833,512.333 475.167,504.667 461.5,497C 450.887,489.071 440.22,481.071 429.5,473C 428.695,471.887 428.028,470.721 427.5,469.5C 426.71,468.206 425.71,467.039 424.5,466C 425.167,465.333 425.833,465.333 426.5,466C 433.151,472.832 440.484,478.665 448.5,483.5C 464.775,496.319 482.442,507.152 501.5,516C 503.5,516.667 505.5,516.667 507.5,516C 531.66,503.779 554.326,489.445 575.5,473C 581.086,467.911 586.419,462.745 591.5,457.5C 597.801,451.03 603.967,444.363 610,437.5C 615,430.5 620,423.5 625,416.5C 633.316,400.849 641.816,385.516 650.5,370.5C 667.859,370.562 685.193,370.395 702.5,370C 703.416,370.374 704.25,370.874 705,371.5C 705.839,376.679 708.339,380.846 712.5,384C 726.181,390.471 736.347,386.971 743,373.5C 744.719,360.9 739.552,352.733 727.5,349C 717.059,347.549 710.059,351.715 706.5,361.5C 688.843,362.666 671.176,362.833 653.5,362C 652.663,360.989 652.33,359.822 652.5,358.5C 654.646,351.613 656.479,344.613 658,337.5C 660,322.836 662,308.169 664,293.5C 664.175,298.019 664.675,302.353 665.5,306.5 Z"/></g>
<g><path style="opacity:0.584" fill="#00030c" d="M 546.5,362.5 C 554.298,369.798 561.965,377.298 569.5,385C 571.833,385.333 574.167,385.667 576.5,386C 577.535,391.101 579.368,395.934 582,400.5C 585.427,402.129 588.927,403.629 592.5,405C 593.451,405.718 593.617,406.551 593,407.5C 575.068,429.433 554.568,448.599 531.5,465C 526.003,467.245 521.003,470.245 516.5,474C 512.71,475.646 508.877,477.146 505,478.5C 496.973,476.233 489.806,472.567 483.5,467.5C 483.88,466.867 484.213,466.2 484.5,465.5C 488.517,467.861 492.517,470.194 496.5,472.5C 499.771,475.046 503.438,475.879 507.5,475C 536.419,459.902 561.419,440.069 582.5,415.5C 583.429,414.311 583.762,412.978 583.5,411.5C 585.978,410.805 587.978,409.305 589.5,407C 586.263,405.548 582.93,404.381 579.5,403.5C 578.376,402.086 577.376,400.586 576.5,399C 576.833,398.667 577.167,398.333 577.5,398C 576.166,395.34 575.332,392.506 575,389.5C 572.48,388.793 569.98,387.96 567.5,387C 559.188,378.518 550.854,370.351 542.5,362.5C 543.557,362.094 544.891,362.094 546.5,362.5 Z"/></g>
<g><path style="opacity:1" fill="#022742" d="M 501.5,420.5 C 489.462,426.781 486.295,436.115 492,448.5C 493.371,450.041 494.871,451.375 496.5,452.5C 496.631,453.239 496.464,453.906 496,454.5C 495.163,452.993 493.996,452.493 492.5,453C 493.815,454.395 493.481,455.395 491.5,456C 495.003,457.777 497.67,459.944 499.5,462.5C 496.553,463.321 493.553,463.821 490.5,464C 491.333,465.5 492.5,466.667 494,467.5C 496.218,465.381 498.718,465.048 501.5,466.5C 499.995,467.842 499.328,469.508 499.5,471.5C 498.209,471.263 497.209,471.596 496.5,472.5C 492.517,470.194 488.517,467.861 484.5,465.5C 484.213,466.2 483.88,466.867 483.5,467.5C 475.779,462.425 468.112,457.258 460.5,452C 455.331,447.997 450.664,443.497 446.5,438.5C 445.04,436.537 443.373,434.704 441.5,433C 443.066,432.7 444.399,433.2 445.5,434.5C 455.678,445.177 467.178,454.177 480,461.5C 481.722,461.389 481.888,460.889 480.5,460C 481.701,459.097 482.535,457.931 483,456.5C 483.66,451.864 484.827,447.364 486.5,443C 485.174,437.127 486.174,431.627 489.5,426.5C 488.975,425.808 488.308,425.308 487.5,425C 487.499,421.699 487.666,418.199 488,414.5C 488.667,413.833 489.333,413.167 490,412.5C 492.175,413.255 494.341,414.088 496.5,415C 495.62,416.356 495.286,417.856 495.5,419.5C 496.833,419.5 498.167,419.5 499.5,419.5C 499.33,403.198 499.663,387.198 500.5,371.5C 500.423,387.976 500.756,404.31 501.5,420.5 Z"/></g>
<g><path style="opacity:1" fill="#001521" d="M 577.5,439.5 C 578.778,440.791 579.445,442.791 579.5,445.5C 583.463,446.491 587.463,447.491 591.5,448.5C 590.585,449.328 589.919,450.328 589.5,451.5C 590.178,453.516 590.844,455.516 591.5,457.5C 586.419,462.745 581.086,467.911 575.5,473C 554.326,489.445 531.66,503.779 507.5,516C 505.5,516.667 503.5,516.667 501.5,516C 482.442,507.152 464.775,496.319 448.5,483.5C 451.694,483.73 454.694,483.064 457.5,481.5C 460.782,482.488 464.115,483.154 467.5,483.5C 467.5,484.833 467.5,486.167 467.5,487.5C 468.833,487.5 470.167,487.5 471.5,487.5C 471.26,484.421 471.593,481.421 472.5,478.5C 469.339,476.691 467.506,474.025 467,470.5C 464.328,469.839 462.828,468.172 462.5,465.5C 475.857,475.012 490.191,482.678 505.5,488.5C 532.76,476.898 556.76,460.565 577.5,439.5 Z"/></g>
<g><path style="opacity:1" fill="#02192a" d="M 387.5,363.5 C 395.227,383.882 405.893,402.549 419.5,419.5C 417.915,420.002 417.415,421.002 418,422.5C 431.077,438.745 445.91,453.078 462.5,465.5C 462.828,468.172 464.328,469.839 467,470.5C 467.506,474.025 469.339,476.691 472.5,478.5C 471.593,481.421 471.26,484.421 471.5,487.5C 470.167,487.5 468.833,487.5 467.5,487.5C 467.5,486.167 467.5,484.833 467.5,483.5C 464.115,483.154 460.782,482.488 457.5,481.5C 454.694,483.064 451.694,483.73 448.5,483.5C 440.484,478.665 433.151,472.832 426.5,466C 425.833,465.333 425.167,465.333 424.5,466C 425.71,467.039 426.71,468.206 427.5,469.5C 425.405,468.588 423.405,467.421 421.5,466C 416,460.5 410.5,455 405,449.5C 400.011,442.186 394.678,435.186 389,428.5C 383.995,420.487 378.995,412.487 374,404.5C 370.534,395.568 366.534,386.902 362,378.5C 361.51,377.207 361.343,375.873 361.5,374.5C 361.369,373.761 361.536,373.094 362,372.5C 376.111,407.28 396.611,437.78 423.5,464C 424.833,464.667 426.167,464.667 427.5,464C 426.62,462.644 426.286,461.144 426.5,459.5C 430.167,459.5 433.833,459.5 437.5,459.5C 436.833,456.833 436.167,454.167 435.5,451.5C 432.5,451.833 431.167,450.5 431.5,447.5C 430.167,447.5 428.833,447.5 427.5,447.5C 427.874,443.336 427.874,439.336 427.5,435.5C 424.924,434.893 422.591,433.726 420.5,432C 418.963,430.89 418.297,429.39 418.5,427.5C 417.5,427.5 416.5,427.5 415.5,427.5C 415.5,426.167 415.5,424.833 415.5,423.5C 414.5,423.5 413.5,423.5 412.5,423.5C 412.67,422.178 412.337,421.011 411.5,420C 412.357,419.311 413.023,418.478 413.5,417.5C 401.645,400.629 391.978,382.463 384.5,363C 384.667,362.5 384.833,362 385,361.5C 385.417,362.756 386.25,363.423 387.5,363.5 Z"/></g>
<g><path style="opacity:0.486" fill="#0b86db" d="M 232.5,587.5 C 237.39,586.588 242.39,585.588 247.5,584.5C 247.5,580.833 247.5,577.167 247.5,573.5C 248.5,573.5 249.5,573.5 250.5,573.5C 250.859,571.234 250.192,569.401 248.5,568C 243.167,567.333 237.833,567.333 232.5,568C 231.697,572.414 231.197,576.914 231,581.5C 230.667,577.167 230.333,572.833 230,568.5C 229.617,567.944 229.117,567.611 228.5,567.5C 228.804,566.85 229.137,566.183 229.5,565.5C 236.811,564.335 244.144,564.169 251.5,565C 252.126,565.75 252.626,566.584 253,567.5C 253.161,574.409 252.661,581.243 251.5,588C 244.986,588.82 238.653,588.653 232.5,587.5 Z"/></g>
<g><path style="opacity:1" fill="#027fe5" d="M 228.5,567.5 C 229.117,567.611 229.617,567.944 230,568.5C 230.333,572.833 230.667,577.167 231,581.5C 231.197,576.914 231.697,572.414 232.5,568C 237.833,567.333 243.167,567.333 248.5,568C 250.192,569.401 250.859,571.234 250.5,573.5C 249.5,573.5 248.5,573.5 247.5,573.5C 247.5,577.167 247.5,580.833 247.5,584.5C 242.39,585.588 237.39,586.588 232.5,587.5C 231.504,587.586 230.671,587.252 230,586.5C 228.743,580.231 228.243,573.898 228.5,567.5 Z"/></g>
<g><path style="opacity:0.627" fill="#010916" d="M 460.5,611.5 C 459.25,611.577 458.417,612.244 458,613.5C 460.663,600.153 468.496,590.986 481.5,586C 492.505,582.667 503.505,582.667 514.5,586C 520.148,589.316 524.814,593.649 528.5,599C 533.682,599.417 538.682,598.584 543.5,596.5C 544.583,595.635 544.749,594.635 544,593.5C 528.684,572.169 508.184,564.669 482.5,571C 465.245,576.587 453.078,587.754 446,604.5C 445.938,602.885 445.771,601.552 445.5,600.5C 453.451,583.009 466.784,571.842 485.5,567C 509.811,562.659 529.645,570.159 545,589.5C 547.209,592.141 547.709,594.975 546.5,598C 540.496,601.001 534.163,602.334 527.5,602C 519.544,588.859 507.877,583.526 492.5,586C 479.762,587.774 469.929,593.941 463,604.5C 461.864,606.743 461.03,609.076 460.5,611.5 Z"/></g>
<g><path style="opacity:1" fill="#037bd8" d="M 159.5,597.5 C 158.739,590.548 158.239,583.548 158,576.5C 157.195,590.827 156.528,605.16 156,619.5C 154.581,616.704 152.415,614.704 149.5,613.5C 149.709,612.914 150.043,612.414 150.5,612C 147.56,611.788 145.726,610.288 145,607.5C 143.644,608.38 142.144,608.714 140.5,608.5C 140.815,612.371 140.482,616.038 139.5,619.5C 140.152,602.134 139.486,585.134 137.5,568.5C 140.598,567.179 144.098,566.512 148,566.5C 152.023,566.575 155.856,567.242 159.5,568.5C 160.823,578.325 160.823,587.992 159.5,597.5 Z"/></g>
<g><path style="opacity:1" fill="#0386e0" d="M 384.5,635.5 C 385.556,636.986 385.223,638.486 383.5,640C 381.662,639.367 379.829,639.534 378,640.5C 377.228,640.355 376.561,640.022 376,639.5C 375.14,633.27 371.64,630.603 365.5,631.5C 365.5,650.5 365.5,669.5 365.5,688.5C 370.179,688.334 374.845,688.501 379.5,689C 374.511,689.499 369.511,689.666 364.5,689.5C 364.667,648.165 364.5,606.832 364,565.5C 363.5,607.165 363.333,648.832 363.5,690.5C 369.271,689.887 374.604,690.554 379.5,692.5C 373.925,691.548 368.259,691.214 362.5,691.5C 362.5,648.167 362.5,604.833 362.5,561.5C 369.833,561.5 377.167,561.5 384.5,561.5C 384.982,582.435 384.315,603.268 382.5,624C 382.51,628.229 383.177,632.062 384.5,635.5 Z"/></g>
<g><path style="opacity:0.618" fill="#010205" d="M 744.5,673.5 C 745.332,648.003 745.832,622.337 746,596.5C 746.5,627.498 746.667,658.498 746.5,689.5C 751.43,689.803 756.263,689.469 761,688.5C 761.333,668.167 761.667,647.833 762,627.5C 764.716,620.119 769.549,614.619 776.5,611C 782.77,609.848 789.103,609.182 795.5,609C 797.667,605.649 799.667,602.149 801.5,598.5C 785.462,593.795 772.296,597.795 762,610.5C 762.595,608.65 763.095,606.65 763.5,604.5C 766.184,602.423 768.851,600.256 771.5,598C 774.363,596.601 777.363,595.601 780.5,595C 788.182,594.459 795.848,594.626 803.5,595.5C 803.268,601.58 800.934,606.747 796.5,611C 789.286,611.908 782.12,613.074 775,614.5C 770.937,617.896 767.604,621.896 765,626.5C 763.711,648.116 763.044,669.783 763,691.5C 757.25,692.641 751.416,692.807 745.5,692C 744.524,685.924 744.19,679.758 744.5,673.5 Z"/></g>
<g><path style="opacity:1" fill="#0278d5" d="M 348.5,626.5 C 347.883,626.389 347.383,626.056 347,625.5C 346.882,622.629 346.216,619.962 345,617.5C 345.291,622.144 345.291,626.811 345,631.5C 344.667,629.5 344.333,627.5 344,625.5C 343.667,625.833 343.333,626.167 343,626.5C 342.027,624.608 341.36,622.608 341,620.5C 338.821,617.989 336.321,615.822 333.5,614C 331.559,613.257 329.726,613.424 328,614.5C 325.929,611.584 324.595,611.918 324,615.5C 315.727,609.887 306.894,609.054 297.5,613C 298.416,613.278 299.082,613.778 299.5,614.5C 294.285,616.876 290.118,620.543 287,625.5C 286.667,647.5 286.333,669.5 286,691.5C 279.59,692.478 273.09,692.811 266.5,692.5C 265.257,659.812 265.257,627.145 266.5,594.5C 272.842,594.334 279.175,594.5 285.5,595C 286.833,597.667 286.833,600.333 285.5,603C 288.462,603.09 290.796,601.757 292.5,599C 309.246,590.733 324.912,592.233 339.5,603.5C 345.672,609.798 348.672,617.464 348.5,626.5 Z"/></g>
<g><path style="opacity:1" fill="#02131d" d="M 763.5,604.5 C 763.095,606.65 762.595,608.65 762,610.5C 772.296,597.795 785.462,593.795 801.5,598.5C 799.667,602.149 797.667,605.649 795.5,609C 789.103,609.182 782.77,609.848 776.5,611C 769.549,614.619 764.716,620.119 762,627.5C 761.667,647.833 761.333,668.167 761,688.5C 756.263,689.469 751.43,689.803 746.5,689.5C 746.667,658.498 746.5,627.498 746,596.5C 745.832,622.337 745.332,648.003 744.5,673.5C 744.5,647.167 744.5,620.833 744.5,594.5C 750.176,594.334 755.843,594.501 761.5,595C 762.132,598.27 762.799,601.437 763.5,604.5 Z"/></g>
<g><path style="opacity:0.612" fill="#0972bb" d="M 432.5,610.5 C 432.196,609.85 431.863,609.183 431.5,608.5C 433.5,605.5 435.5,602.5 437.5,599.5C 431.528,598.336 425.528,598.17 419.5,599C 412.715,608.617 405.048,617.45 396.5,625.5C 396.5,624.167 396.5,622.833 396.5,621.5C 400.414,616.997 404.58,612.664 409,608.5C 411.419,604.407 414.252,600.573 417.5,597C 425.729,594.777 434.062,594.277 442.5,595.5C 442.509,597.308 442.009,598.975 441,600.5C 437.551,603.438 434.718,606.771 432.5,610.5 Z"/></g>
<g><path style="opacity:1" fill="#0383da" d="M 432.5,610.5 C 425.029,619.389 417.529,628.389 410,637.5C 410.451,639.52 411.284,641.52 412.5,643.5C 412.565,643.938 412.399,644.272 412,644.5C 410.961,643.29 409.794,642.29 408.5,641.5C 407.275,640.848 406.608,639.681 406.5,638C 407.555,635.493 408.555,632.993 409.5,630.5C 408.402,627.898 407.402,625.231 406.5,622.5C 402.513,622.658 399.347,624.325 397,627.5C 396.536,626.906 396.369,626.239 396.5,625.5C 405.048,617.45 412.715,608.617 419.5,599C 425.528,598.17 431.528,598.336 437.5,599.5C 435.5,602.5 433.5,605.5 431.5,608.5C 431.863,609.183 432.196,609.85 432.5,610.5 Z"/></g>
<g><path style="opacity:0.314" fill="#000106" d="M 559.5,595.5 C 563.452,596.196 567.452,596.696 571.5,597C 568.183,597.498 564.85,597.665 561.5,597.5C 561.17,620.688 561.836,643.688 563.5,666.5C 563.502,670.511 564.668,674.178 567,677.5C 576.611,688.969 588.778,692.802 603.5,689C 610.415,686.428 616.582,682.595 622,677.5C 622.134,681.344 622.301,685.344 622.5,689.5C 621.686,687.369 621.186,685.036 621,682.5C 615.53,686.957 609.363,690.124 602.5,692C 581.99,696.335 568.157,688.835 561,669.5C 558.429,644.722 557.929,620.055 559.5,595.5 Z"/></g>
<g><path style="opacity:0.382" fill="#000207" d="M 728.5,613.5 C 727.778,613.918 727.278,614.584 727,615.5C 721.325,604.16 712.158,597.993 699.5,597C 683.218,594.579 668.885,598.579 656.5,609C 658.389,612.391 661.055,614.891 664.5,616.5C 677.201,608.17 690.868,606.336 705.5,611C 714.535,616.757 717.702,624.924 715,635.5C 714.821,631.975 714.321,628.641 713.5,625.5C 712.532,621.152 710.199,617.486 706.5,614.5C 704.453,612.985 702.119,612.151 699.5,612C 691.778,611.188 684.111,611.522 676.5,613C 672.633,615.698 668.633,618.198 664.5,620.5C 660.35,617.885 656.85,614.552 654,610.5C 653.219,609.056 653.386,607.723 654.5,606.5C 669.599,595.242 686.599,591.408 705.5,595C 716.3,597.385 723.967,603.552 728.5,613.5 Z"/></g>
<g><path style="opacity:0.997" fill="#032133" d="M 460.5,611.5 C 458.818,617.677 458.152,624.01 458.5,630.5C 457.732,631.263 457.232,632.263 457,633.5C 456.667,629.5 456.333,625.5 456,621.5C 453.193,629.57 451.693,638.237 451.5,647.5C 450.5,647.5 449.5,647.5 448.5,647.5C 448.313,645.436 447.813,643.436 447,641.5C 443.802,645.484 442.635,644.984 443.5,640C 442.934,639.005 442.267,638.172 441.5,637.5C 440.065,628.715 440.732,620.048 443.5,611.5C 443.333,610.833 443.167,610.167 443,609.5C 442.764,611.119 441.931,612.119 440.5,612.5C 441.57,608.175 443.237,604.175 445.5,600.5C 445.771,601.552 445.938,602.885 446,604.5C 453.078,587.754 465.245,576.587 482.5,571C 508.184,564.669 528.684,572.169 544,593.5C 544.749,594.635 544.583,595.635 543.5,596.5C 538.682,598.584 533.682,599.417 528.5,599C 524.814,593.649 520.148,589.316 514.5,586C 503.505,582.667 492.505,582.667 481.5,586C 468.496,590.986 460.663,600.153 458,613.5C 458.417,612.244 459.25,611.577 460.5,611.5 Z"/></g>
<g><path style="opacity:1" fill="#006fcf" d="M 248.5,619.5 C 247.751,618.469 247.085,617.302 246.5,616C 245.4,615.568 244.733,616.068 244.5,617.5C 245.066,621.186 246.066,624.686 247.5,628C 247.232,630.893 246.232,631.226 244.5,629C 244.833,628.667 245.167,628.333 245.5,628C 241.322,626.452 237.156,626.285 233,627.5C 232.5,620.842 232.334,614.175 232.5,607.5C 232.5,604.833 232.5,602.167 232.5,599.5C 236.179,599.724 239.846,600.058 243.5,600.5C 243.118,604.976 244.285,608.976 247,612.5C 247.333,612.167 247.667,611.833 248,611.5C 248.497,614.146 248.664,616.813 248.5,619.5 Z"/></g>
<g><path style="opacity:1" fill="#041f2e" d="M 559.5,595.5 C 565.319,594.347 571.319,594.181 577.5,595C 578.46,598.73 578.793,602.563 578.5,606.5C 577.691,608.292 577.191,610.292 577,612.5C 575.658,611.098 574.824,611.431 574.5,613.5C 575.229,628.81 575.229,644.143 574.5,659.5C 572.167,659.5 569.833,659.5 567.5,659.5C 567.657,658.127 567.49,656.793 567,655.5C 566.391,659.414 565.225,663.081 563.5,666.5C 561.836,643.688 561.17,620.688 561.5,597.5C 564.85,597.665 568.183,597.498 571.5,597C 567.452,596.696 563.452,596.196 559.5,595.5 Z"/></g>
<g><path style="opacity:1" fill="#02141f" d="M 728.5,613.5 C 729.148,615.086 729.648,616.753 730,618.5C 730.821,642.166 731.155,665.832 731,689.5C 729.302,690.733 727.302,691.4 725,691.5C 721.158,692.06 717.324,692.227 713.5,692C 712.549,688.943 712.216,685.777 712.5,682.5C 712.539,681.244 712.039,680.244 711,679.5C 698.835,689.8 685.002,692.967 669.5,689C 670,688.5 670.5,688 671,687.5C 671.498,684.183 671.665,680.85 671.5,677.5C 683.357,681.101 694.691,679.934 705.5,674C 713.328,667.309 716.162,658.809 714,648.5C 713.722,649.416 713.222,650.082 712.5,650.5C 712.158,649.662 711.492,649.328 710.5,649.5C 713.126,648.053 712.793,647.053 709.5,646.5C 700.182,647.399 690.848,648.233 681.5,649C 675.958,649.349 671.791,651.849 669,656.5C 667.667,659.833 666.333,663.167 665,666.5C 664.667,665.5 664.333,664.5 664,663.5C 663.827,667.541 663.327,671.541 662.5,675.5C 660.917,673.01 659.917,670.343 659.5,667.5C 658.167,667.5 656.833,667.5 655.5,667.5C 655.719,668.675 655.386,669.675 654.5,670.5C 653.16,669.312 652.493,667.812 652.5,666C 653.234,662.499 653.9,658.999 654.5,655.5C 655.833,655.5 657.167,655.5 658.5,655.5C 658.102,650.802 660.102,646.968 664.5,644C 669.834,641 675.501,639 681.5,638C 680.263,637.768 679.263,637.268 678.5,636.5C 689.718,634.909 701.051,634.076 712.5,634C 713.444,631.281 713.777,628.448 713.5,625.5C 714.321,628.641 714.821,631.975 715,635.5C 717.702,624.924 714.535,616.757 705.5,611C 690.868,606.336 677.201,608.17 664.5,616.5C 661.055,614.891 658.389,612.391 656.5,609C 668.885,598.579 683.218,594.579 699.5,597C 712.158,597.993 721.325,604.16 727,615.5C 727.278,614.584 727.778,613.918 728.5,613.5 Z"/></g>
<g><path style="opacity:1" fill="#026dc5" d="M 348.5,626.5 C 348.667,648.169 348.5,669.836 348,691.5C 344.651,691.746 341.151,691.746 337.5,691.5C 340.057,690.412 342.724,689.412 345.5,688.5C 344.457,678.863 343.79,669.196 343.5,659.5C 340.115,659.975 337.782,658.642 336.5,655.5C 335.833,656.833 335.167,658.167 334.5,659.5C 333.167,650.167 331.833,650.167 330.5,659.5C 329.422,654.545 328.589,649.545 328,644.5C 327.809,646.708 327.309,648.708 326.5,650.5C 326.666,642.493 326.5,634.493 326,626.5C 323.208,614.641 315.708,610.141 303.5,613C 302.099,613.41 300.766,613.91 299.5,614.5C 299.082,613.778 298.416,613.278 297.5,613C 306.894,609.054 315.727,609.887 324,615.5C 324.595,611.918 325.929,611.584 328,614.5C 329.726,613.424 331.559,613.257 333.5,614C 336.321,615.822 338.821,617.989 341,620.5C 341.36,622.608 342.027,624.608 343,626.5C 343.333,626.167 343.667,625.833 344,625.5C 344.333,627.5 344.667,629.5 345,631.5C 345.291,626.811 345.291,622.144 345,617.5C 346.216,619.962 346.882,622.629 347,625.5C 347.383,626.056 347.883,626.389 348.5,626.5 Z"/></g>
<g><path style="opacity:1" fill="#016ec8" d="M 159.5,597.5 C 159.672,598.492 159.338,599.158 158.5,599.5C 157.507,617.43 156.673,636.097 156,655.5C 154.86,652.898 154.027,650.231 153.5,647.5C 152.167,647.5 150.833,647.5 149.5,647.5C 149.5,646.167 149.5,644.833 149.5,643.5C 148.178,643.33 147.011,643.663 146,644.5C 144.333,648.167 142.667,651.833 141,655.5C 140.3,643.506 139.8,631.506 139.5,619.5C 140.482,616.038 140.815,612.371 140.5,608.5C 142.144,608.714 143.644,608.38 145,607.5C 145.726,610.288 147.56,611.788 150.5,612C 150.043,612.414 149.709,612.914 149.5,613.5C 152.415,614.704 154.581,616.704 156,619.5C 156.528,605.16 157.195,590.827 158,576.5C 158.239,583.548 158.739,590.548 159.5,597.5 Z"/></g>
<g><path style="opacity:1" fill="#031824" d="M 458.5,630.5 C 458.721,638.379 460.055,646.046 462.5,653.5C 459.489,648.688 457.656,643.354 457,637.5C 457.506,652.322 464.006,663.822 476.5,672C 485.769,676.101 495.436,677.435 505.5,676C 509.175,675.443 512.508,674.11 515.5,672C 510.251,673.785 504.751,674.951 499,675.5C 497.014,675.431 495.514,674.765 494.5,673.5C 498.769,674.258 503.102,674.091 507.5,673C 512.522,670.489 517.522,667.989 522.5,665.5C 521.284,667.451 519.618,668.951 517.5,670C 517.833,670.167 518.167,670.333 518.5,670.5C 522.615,667.792 526.615,665.125 530.5,662.5C 530.788,656.771 530.454,651.104 529.5,645.5C 518.166,644.34 506.832,644.34 495.5,645.5C 495.5,640.833 495.5,636.167 495.5,631.5C 503.84,631.666 512.173,631.5 520.5,631C 518.881,630.764 517.881,629.931 517.5,628.5C 527.749,628.181 537.916,628.514 548,629.5C 548.613,649.839 548.946,670.172 549,690.5C 543.259,691.475 537.425,691.808 531.5,691.5C 531.5,687.167 531.5,682.833 531.5,678.5C 531.649,677.448 531.483,676.448 531,675.5C 514.727,690.955 495.894,694.789 474.5,687C 454.594,676.567 443.594,660.067 441.5,637.5C 442.267,638.172 442.934,639.005 443.5,640C 442.635,644.984 443.802,645.484 447,641.5C 447.813,643.436 448.313,645.436 448.5,647.5C 449.5,647.5 450.5,647.5 451.5,647.5C 451.693,638.237 453.193,629.57 456,621.5C 456.333,625.5 456.667,629.5 457,633.5C 457.232,632.263 457.732,631.263 458.5,630.5 Z"/></g>
<g><path style="opacity:0.387" fill="#0777c8" d="M 252.5,643.5 C 251.676,647.312 251.176,651.312 251,655.5C 248.942,644.158 248.108,632.158 248.5,619.5C 248.664,616.813 248.497,614.146 248,611.5C 247.667,611.833 247.333,612.167 247,612.5C 244.285,608.976 243.118,604.976 243.5,600.5C 239.846,600.058 236.179,599.724 232.5,599.5C 232.5,602.167 232.5,604.833 232.5,607.5C 231.918,604.687 230.918,602.02 229.5,599.5C 229.5,598.167 229.5,596.833 229.5,595.5C 237.087,595.186 244.587,595.519 252,596.5C 252.5,612.163 252.667,627.83 252.5,643.5 Z"/></g>
<g><path style="opacity:1" fill="#0263b7" d="M 137.5,568.5 C 139.486,585.134 140.152,602.134 139.5,619.5C 139.8,631.506 140.3,643.506 141,655.5C 142.667,651.833 144.333,648.167 146,644.5C 147.011,643.663 148.178,643.33 149.5,643.5C 149.5,644.833 149.5,646.167 149.5,647.5C 150.833,647.5 152.167,647.5 153.5,647.5C 154.027,650.231 154.86,652.898 156,655.5C 156.673,636.097 157.507,617.43 158.5,599.5C 158.333,622.169 158.5,644.836 159,667.5C 175.756,668.492 192.589,668.825 209.5,668.5C 209.5,669.5 209.5,670.5 209.5,671.5C 191.5,671.5 173.5,671.5 155.5,671.5C 155.65,674.926 154.484,675.259 152,672.5C 149.794,673.352 147.627,674.352 145.5,675.5C 144.328,675.081 143.328,674.415 142.5,673.5C 140.728,676.572 139.561,679.905 139,683.5C 138.992,669.127 138.492,659.46 137.5,654.5C 137.342,625.8 137.342,597.134 137.5,568.5 Z"/></g>
<g><path style="opacity:0.605" fill="#010309" d="M 517.5,628.5 C 517.881,629.931 518.881,630.764 520.5,631C 512.173,631.5 503.84,631.666 495.5,631.5C 495.5,636.167 495.5,640.833 495.5,645.5C 506.832,644.34 518.166,644.34 529.5,645.5C 530.454,651.104 530.788,656.771 530.5,662.5C 526.615,665.125 522.615,667.792 518.5,670.5C 518.167,670.333 517.833,670.167 517.5,670C 519.618,668.951 521.284,667.451 522.5,665.5C 523.446,662.719 525.279,660.719 528,659.5C 528.667,656.5 528.667,653.5 528,650.5C 526.812,649.437 526.312,648.103 526.5,646.5C 517.477,646.057 508.644,646.723 500,648.5C 497.906,648.464 495.906,648.131 494,647.5C 493.736,642.137 493.236,636.803 492.5,631.5C 492.833,630.833 493.167,630.167 493.5,629.5C 501.444,628.531 509.444,628.198 517.5,628.5 Z"/></g>
<g><path style="opacity:1" fill="#01131d" d="M 868.5,603.5 C 868.5,599.833 868.5,596.167 868.5,592.5C 869.326,597.316 869.826,602.316 870,607.5C 869.861,593.143 870.028,578.809 870.5,564.5C 875.167,564.5 879.833,564.5 884.5,564.5C 884.817,606.197 884.483,647.864 883.5,689.5C 879.833,689.5 876.167,689.5 872.5,689.5C 872.5,685.167 872.5,680.833 872.5,676.5C 869.187,677.161 866.52,678.994 864.5,682C 855.661,688.771 845.661,691.105 834.5,689C 828.272,687.108 822.772,683.941 818,679.5C 803.899,661.906 800.232,642.239 807,620.5C 815.631,601.266 830.465,593.766 851.5,598C 858.508,599.838 864.175,603.672 868.5,609.5C 868.746,607.78 868.746,605.78 868.5,603.5 Z M 838.5,611.5 C 844.577,611.196 850.577,611.696 856.5,613C 860.14,616.395 863.64,619.895 867,623.5C 867.667,634.5 867.667,645.5 867,656.5C 861.887,672.374 851.387,677.707 835.5,672.5C 824.544,663.497 819.544,651.83 820.5,637.5C 820.981,633.136 821.647,628.802 822.5,624.5C 826.001,617.739 831.335,613.406 838.5,611.5 Z"/></g>
<g><path style="opacity:1" fill="#0160b9" d="M 229.5,599.5 C 230.918,602.02 231.918,604.687 232.5,607.5C 232.334,614.175 232.5,620.842 233,627.5C 237.156,626.285 241.322,626.452 245.5,628C 245.167,628.333 244.833,628.667 244.5,629C 246.232,631.226 247.232,630.893 247.5,628C 246.066,624.686 245.066,621.186 244.5,617.5C 244.733,616.068 245.4,615.568 246.5,616C 247.085,617.302 247.751,618.469 248.5,619.5C 248.108,632.158 248.942,644.158 251,655.5C 251.176,651.312 251.676,647.312 252.5,643.5C 252.5,659.833 252.5,676.167 252.5,692.5C 244.988,692.477 237.488,692.143 230,691.5C 229.5,660.835 229.333,630.168 229.5,599.5 Z"/></g>
<g><path style="opacity:1" fill="#0162bc" d="M 337.5,691.5 C 333.881,692.244 330.215,692.577 326.5,692.5C 326.5,678.5 326.5,664.5 326.5,650.5C 327.309,648.708 327.809,646.708 328,644.5C 328.589,649.545 329.422,654.545 330.5,659.5C 331.833,650.167 333.167,650.167 334.5,659.5C 335.167,658.167 335.833,656.833 336.5,655.5C 337.782,658.642 340.115,659.975 343.5,659.5C 343.79,669.196 344.457,678.863 345.5,688.5C 342.724,689.412 340.057,690.412 337.5,691.5 Z"/></g>
<g><path style="opacity:0.739" fill="#01060e" d="M 462.5,653.5 C 465.493,656.501 468.159,659.835 470.5,663.5C 477.613,669.059 485.613,672.393 494.5,673.5C 495.514,674.765 497.014,675.431 499,675.5C 504.751,674.951 510.251,673.785 515.5,672C 512.508,674.11 509.175,675.443 505.5,676C 495.436,677.435 485.769,676.101 476.5,672C 464.006,663.822 457.506,652.322 457,637.5C 457.656,643.354 459.489,648.688 462.5,653.5 Z"/></g>
<g><path style="opacity:1" fill="#010a12" d="M 678.5,636.5 C 679.263,637.268 680.263,637.768 681.5,638C 675.501,639 669.834,641 664.5,644C 660.102,646.968 658.102,650.802 658.5,655.5C 657.167,655.5 655.833,655.5 654.5,655.5C 653.9,658.999 653.234,662.499 652.5,666C 652.493,667.812 653.16,669.312 654.5,670.5C 655.386,669.675 655.719,668.675 655.5,667.5C 656.833,667.5 658.167,667.5 659.5,667.5C 659.917,670.343 660.917,673.01 662.5,675.5C 663.327,671.541 663.827,667.541 664,663.5C 664.333,664.5 664.667,665.5 665,666.5C 666.333,663.167 667.667,659.833 669,656.5C 671.791,651.849 675.958,649.349 681.5,649C 690.848,648.233 700.182,647.399 709.5,646.5C 712.793,647.053 713.126,648.053 710.5,649.5C 702.135,649.447 693.802,649.947 685.5,651C 675.968,650.708 670.635,655.208 669.5,664.5C 670.938,673.088 676.105,677.088 685,676.5C 702.859,676.804 712.026,668.137 712.5,650.5C 713.222,650.082 713.722,649.416 714,648.5C 716.162,658.809 713.328,667.309 705.5,674C 694.691,679.934 683.357,681.101 671.5,677.5C 671.665,680.85 671.498,684.183 671,687.5C 670.5,688 670,688.5 669.5,689C 685.002,692.967 698.835,689.8 711,679.5C 712.039,680.244 712.539,681.244 712.5,682.5C 707.555,685.309 702.555,688.143 697.5,691C 685.172,694.737 673.172,694.07 661.5,689C 659.707,686.205 657.54,683.705 655,681.5C 645.921,662.305 650.754,647.805 669.5,638C 672.432,637.047 675.432,636.547 678.5,636.5 Z M 710.5,649.5 C 711.492,649.328 712.158,649.662 712.5,650.5C 712.026,668.137 702.859,676.804 685,676.5C 676.105,677.088 670.938,673.088 669.5,664.5C 670.635,655.208 675.968,650.708 685.5,651C 693.802,649.947 702.135,649.447 710.5,649.5 Z"/></g>
<g><path style="opacity:1" fill="#026bc7" d="M 408.5,641.5 C 409.794,642.29 410.961,643.29 412,644.5C 412.399,644.272 412.565,643.938 412.5,643.5C 425.283,657.82 438.45,671.82 452,685.5C 452.494,687.134 452.66,688.801 452.5,690.5C 444.644,690.326 436.811,690.659 429,691.5C 426.7,691.506 424.534,691.006 422.5,690C 420.05,686.273 417.717,682.44 415.5,678.5C 408.484,671.813 402.151,664.48 396.5,656.5C 398.6,656.477 400.433,657.144 402,658.5C 402.873,658.265 403.707,657.931 404.5,657.5C 404.489,658.441 404.989,659.108 406,659.5C 406.772,659.355 407.439,659.022 408,658.5C 408.791,655.149 409.958,651.982 411.5,649C 411.2,646.976 410.367,646.476 409,647.5C 408.505,645.527 408.338,643.527 408.5,641.5 Z"/></g>
<g><path style="opacity:0.369" fill="#000206" d="M 868.5,603.5 C 868.746,605.78 868.746,607.78 868.5,609.5C 864.175,603.672 858.508,599.838 851.5,598C 830.465,593.766 815.631,601.266 807,620.5C 800.232,642.239 803.899,661.906 818,679.5C 822.772,683.941 828.272,687.108 834.5,689C 845.661,691.105 855.661,688.771 864.5,682C 866.52,678.994 869.187,677.161 872.5,676.5C 872.5,680.833 872.5,685.167 872.5,689.5C 876.167,689.5 879.833,689.5 883.5,689.5C 884.483,647.864 884.817,606.197 884.5,564.5C 879.833,564.5 875.167,564.5 870.5,564.5C 870.028,578.809 869.861,593.143 870,607.5C 869.826,602.316 869.326,597.316 868.5,592.5C 867.361,582.911 867.194,573.244 868,563.5C 868.956,562.106 870.289,561.439 872,561.5C 876.795,562.358 881.628,562.691 886.5,562.5C 886.801,605.517 886.467,648.517 885.5,691.5C 880.478,691.782 875.478,691.949 870.5,692C 869.707,688.589 869.207,685.089 869,681.5C 852.285,695.385 835.119,695.885 817.5,683C 800.439,662.119 796.939,638.952 807,613.5C 819.587,595.797 836.42,590.297 857.5,597C 861.082,599.448 864.749,601.615 868.5,603.5 Z M 838.5,611.5 C 831.335,613.406 826.001,617.739 822.5,624.5C 821.647,628.802 820.981,633.136 820.5,637.5C 819.544,651.83 824.544,663.497 835.5,672.5C 851.387,677.707 861.887,672.374 867,656.5C 867.667,645.5 867.667,634.5 867,623.5C 863.64,619.895 860.14,616.395 856.5,613C 850.577,611.696 844.577,611.196 838.5,611.5 Z"/></g>
<g><path style="opacity:1" fill="#0176d4" d="M 384.5,635.5 C 388.24,630.44 392.24,625.774 396.5,621.5C 396.5,622.833 396.5,624.167 396.5,625.5C 396.369,626.239 396.536,626.906 397,627.5C 399.347,624.325 402.513,622.658 406.5,622.5C 407.402,625.231 408.402,627.898 409.5,630.5C 408.555,632.993 407.555,635.493 406.5,638C 406.608,639.681 407.275,640.848 408.5,641.5C 408.338,643.527 408.505,645.527 409,647.5C 410.367,646.476 411.2,646.976 411.5,649C 409.958,651.982 408.791,655.149 408,658.5C 407.439,659.022 406.772,659.355 406,659.5C 404.989,659.108 404.489,658.441 404.5,657.5C 403.707,657.931 402.873,658.265 402,658.5C 400.433,657.144 398.6,656.477 396.5,656.5C 395.521,655.235 394.521,653.901 393.5,652.5C 388.443,657.351 384.943,663.018 383,669.5C 382.5,677.159 382.334,684.826 382.5,692.5C 381.5,692.5 380.5,692.5 379.5,692.5C 374.604,690.554 369.271,689.887 363.5,690.5C 363.333,648.832 363.5,607.165 364,565.5C 364.5,606.832 364.667,648.165 364.5,689.5C 369.511,689.666 374.511,689.499 379.5,689C 374.845,688.501 370.179,688.334 365.5,688.5C 365.5,669.5 365.5,650.5 365.5,631.5C 371.64,630.603 375.14,633.27 376,639.5C 376.561,640.022 377.228,640.355 378,640.5C 379.829,639.534 381.662,639.367 383.5,640C 385.223,638.486 385.556,636.986 384.5,635.5 Z"/></g>
<g><path style="opacity:1" fill="#021824" d="M 636.5,692.5 C 631.917,691.805 627.251,691.805 622.5,692.5C 622.5,691.5 622.5,690.5 622.5,689.5C 622.301,685.344 622.134,681.344 622,677.5C 616.582,682.595 610.415,686.428 603.5,689C 588.778,692.802 576.611,688.969 567,677.5C 564.668,674.178 563.502,670.511 563.5,666.5C 565.225,663.081 566.391,659.414 567,655.5C 567.49,656.793 567.657,658.127 567.5,659.5C 569.833,659.5 572.167,659.5 574.5,659.5C 575.229,644.143 575.229,628.81 574.5,613.5C 574.824,611.431 575.658,611.098 577,612.5C 577.191,610.292 577.691,608.292 578.5,606.5C 578.333,624.836 578.5,643.17 579,661.5C 581.451,670.608 587.451,675.274 597,675.5C 615.407,673.401 623.24,663.068 620.5,644.5C 621.5,644.5 622.5,644.5 623.5,644.5C 623.109,630.122 623.609,615.789 625,601.5C 625.5,601 626,600.5 626.5,600C 630.089,599.793 633.589,599.293 637,598.5C 637.5,628.832 637.667,659.165 637.5,689.5C 633.167,689.5 628.833,689.5 624.5,689.5C 624.665,685.818 624.499,682.152 624,678.5C 623.172,682.871 623.339,687.205 624.5,691.5C 628.777,690.394 633.11,690.228 637.5,691C 636.944,691.383 636.611,691.883 636.5,692.5 Z"/></g>
<g><path style="opacity:0.582" fill="#000206" d="M 835.5,609.5 C 847.774,606.994 858.274,609.994 867,618.5C 868.275,620.717 869.275,623.051 870,625.5C 870.444,636.515 870.11,647.515 869,658.5C 862.866,674.815 851.366,680.315 834.5,675C 822.522,665.946 817.189,653.779 818.5,638.5C 817.288,624.566 822.955,614.899 835.5,609.5 Z M 838.5,611.5 C 831.335,613.406 826.001,617.739 822.5,624.5C 821.647,628.802 820.981,633.136 820.5,637.5C 819.544,651.83 824.544,663.497 835.5,672.5C 851.387,677.707 861.887,672.374 867,656.5C 867.667,645.5 867.667,634.5 867,623.5C 863.64,619.895 860.14,616.395 856.5,613C 850.577,611.696 844.577,611.196 838.5,611.5 Z"/></g>
<g><path style="opacity:0.746" fill="#010915" d="M 636.5,692.5 C 636.611,691.883 636.944,691.383 637.5,691C 633.11,690.228 628.777,690.394 624.5,691.5C 623.339,687.205 623.172,682.871 624,678.5C 624.499,682.152 624.665,685.818 624.5,689.5C 628.833,689.5 633.167,689.5 637.5,689.5C 637.667,659.165 637.5,628.832 637,598.5C 633.589,599.293 630.089,599.793 626.5,600C 626,600.5 625.5,601 625,601.5C 623.609,615.789 623.109,630.122 623.5,644.5C 622.5,644.5 621.5,644.5 620.5,644.5C 620.544,628.154 621.044,611.821 622,595.5C 628.333,594.167 634.667,594.167 641,595.5C 640.704,627.467 640.37,659.467 640,691.5C 638.989,692.337 637.822,692.67 636.5,692.5 Z"/></g>
<g><path style="opacity:1" fill="#0155b1" d="M 209.5,668.5 C 213.47,669.166 217.47,669.832 221.5,670.5C 222.497,677.803 222.831,685.137 222.5,692.5C 194.005,692.343 165.338,692.343 136.5,692.5C 136.205,679.784 136.538,667.117 137.5,654.5C 138.492,659.46 138.992,669.127 139,683.5C 139.561,679.905 140.728,676.572 142.5,673.5C 143.328,674.415 144.328,675.081 145.5,675.5C 147.627,674.352 149.794,673.352 152,672.5C 154.484,675.259 155.65,674.926 155.5,671.5C 173.5,671.5 191.5,671.5 209.5,671.5C 209.5,670.5 209.5,669.5 209.5,668.5 Z"/></g>
<g><path style="opacity:0.419" fill="#01040d" d="M 441.5,637.5 C 443.594,660.067 454.594,676.567 474.5,687C 495.894,694.789 514.727,690.955 531,675.5C 531.483,676.448 531.649,677.448 531.5,678.5C 515.311,693.151 496.644,696.984 475.5,690C 455.85,680.88 443.683,665.714 439,644.5C 436.915,633.694 437.415,623.027 440.5,612.5C 441.931,612.119 442.764,611.119 443,609.5C 443.167,610.167 443.333,610.833 443.5,611.5C 440.732,620.048 440.065,628.715 441.5,637.5 Z"/></g>
</svg>
